<svg xmlns="http://www.w3.org/2000/svg" viewBox="0 0 410 410" fill="none">
    <path d="M41.069 364.808h327.938V164.465L205.038 44.311 41.069 164.465v200.343zm327.937 0L241.5 260.4c-21.317-17.457-53.958-15.523-72.472-.362L41.068 364.806m3.444-195.491l119.3 90.4m201.748-90.4l-119.3 90.4M204.118 136.09h2.542c8.979 0 14.944 7.346 13.257 16.325l-2.8 14.874c-1.686 8.978-10.413 16.323-19.392 16.323h-2.541c-8.978 0-14.944-7.345-13.256-16.323l2.8-14.874c1.687-8.979 10.412-16.325 19.39-16.325zm27.046 72.852a61.34 61.34 0 01-24.177 4.912c-32.241 0-58.379-24.561-58.379-54.857s26.138-54.856 58.379-54.856c32.472 0 59.977 22.075 52.006 56.368a37.8 37.8 0 01-7.382 14.426c-10.2 12.993-35.479 15.555-34.069-5.667.939-14.144 2.638-20.676 10.654-34.8" stroke="#424242" stroke-linecap="round" stroke-linejoin="round" stroke-width="14"/>
</svg>
