<?xml version="1.0" encoding="utf-8"?>
<svg version="1.1" id="Layer_1" xmlns="http://www.w3.org/2000/svg" xmlns:xlink="http://www.w3.org/1999/xlink" x="0px" y="0px"
	 viewBox="0 0 400 400" style="enable-background:new 0 0 400 400;" xml:space="preserve">
<rect width="400" height="400"  fill="#FFF"/>
	<path transform="matrix(9.08716,0,0,19.713,-1225.66,-10206.2)" fill="#056BC7" d="M141.8,528.5c0.5-2.1,1.9-4.3,4.4-5.9c1-0.7,2.3-1.2,4-1.4c0.9-0.1,1.8-0.1,2.8-0.1c4.6,0,9.3,0.6,13.4,1.6
		c1.8,0.4,3.6,0.9,4.5,1.8c1.1,1.1,0.8,2.4,0.4,3.6c-0.4,1.4-1.2,2.7-2.4,4c-0.7,0.7-1.5,1.4-2.6,1.9c-0.5,0.3-1.1,0.5-1.8,0.7
		c-1.3,0.3-2.8,0.3-4.3,0.3c-1.8,0-3.6-0.1-5.4-0.3c-3.1-0.3-6.1-0.7-8.7-1.4c-1.1-0.3-2.1-0.6-2.9-1c-1-0.5-1.4-1.2-1.5-1.9
		C141.5,529.6,141.6,529,141.8,528.5z M168,531.2c-2.3,0.7-5.5,0.5-8.1,0.4c-1.4-0.1-2.9-0.1-4.3-0.1c-2.8,0.1-5.6,0.5-8.4,0.6
		c-0.8,0-1.5,0-2.3-0.1l0,0c3.8,1.4,9,2,13.6,2.2c2.3,0.1,4.9,0.1,6.4-0.6C166.3,533,167.2,532.1,168,531.2
		C168,531.2,168,531.2,168,531.2z M142.7,528.4c-0.1,0.3-0.1,0.7-0.2,1c0,0.7,0.2,1.5,1.6,1.9c1.4,0.4,3.2,0.2,4.6,0.1
		c2.8-0.2,5.6-0.5,8.5-0.5c2.2,0,4.4,0.2,6.5,0.2c0.8,0,1.7,0,2.5-0.2c-1-0.1-1.9-0.5-2.8-0.8c-1.7-0.6-3.7-1.1-6-1
		c-2.5,0-4.9,0.5-7.3,0.4C147.5,529.5,145.1,529,142.7,528.4C142.8,528.4,142.8,528.4,142.7,528.4z M144.3,525.3
		c0,0.1-0.1,0.1-0.1,0.2c-0.6,0.8-1,1.6-1.3,2.5c2.9,0.8,6.1,1.4,9.4,1.2c2.6-0.2,5.3-0.6,8-0.2c2.2,0.3,4,1.2,6,1.7
		c0.7,0.2,1.5,0,2.1-0.3l0,0c-0.1,0-0.3,0-0.4,0c-1-0.1-1.6-0.5-2.3-0.8c-2.2-1.1-4.7-2.1-8-2c-3.2,0-6.6,0.5-9.1-0.1
		C146.8,526.9,145.5,526.1,144.3,525.3z M170.1,528c0.4-1,0.6-2,0.1-3c-0.5-1-2.5-1.6-4.6-2.1c-4-0.9-8.4-1.5-12.8-1.5
		c-0.1,0-0.1,0-0.2,0c-1.6,0-3.3,0.1-4.4,0.6c-1.7,0.7-2.8,1.7-3.6,2.8c0,0,0.1,0.1,0.1,0.1c1.7,1.2,3.6,2.4,6.9,2.4
		c2.9,0,6-0.5,8.9-0.1c2.4,0.3,4.3,1.2,6,2.1c0.5,0.2,1,0.5,1.6,0.5c0.5,0,0.6-0.3,0.8-0.4C169.5,529,169.8,528.5,170.1,528
		C170.1,528.1,170.1,528.1,170.1,528z"/>
</svg>
