<svg xmlns="http://www.w3.org/2000/svg" viewBox="0 0 400 400">
    <path fill="#FFF" d="M0 0h400v400H0z"/>
    <path fill="#056BC7" d="M62.9 212.12c4.543-41.397 17.265-84.765 39.983-116.306 9.087-13.8 20.9-23.656 36.348-27.598 8.179-1.972 16.357-1.972 25.444-1.972 41.801 0 84.511 11.828 121.768 31.541 16.357 7.885 32.714 17.742 40.893 35.483 9.996 21.685 7.27 47.312 3.635 70.967-3.635 27.598-10.905 53.225-21.81 78.852-6.36 13.8-13.63 27.598-23.626 37.455-4.544 5.914-9.996 9.856-16.357 13.8-11.813 5.913-25.444 5.913-39.075 5.913-16.357 0-32.714-1.971-49.07-5.914-28.17-5.914-55.432-13.799-79.059-27.598-9.996-5.914-19.083-11.828-26.353-19.713-9.087-9.857-12.722-23.656-13.63-37.455-1.818-15.77-.91-27.598.908-37.455zm238.083 53.226c-20.9 13.799-49.98 9.856-73.606 7.885-12.722-1.972-26.353-1.972-39.075-1.972-25.444 1.972-50.888 9.857-76.332 11.828-7.27 0-13.63 0-20.9-1.971 34.53 27.598 81.784 39.426 123.585 43.369 20.9 1.97 44.527 1.97 58.158-11.828 12.722-11.828 20.9-29.57 28.17-47.311zM71.078 210.149c-.909 5.914-.909 13.8-1.818 19.713 0 13.8 1.818 29.57 14.54 37.455 12.722 7.885 29.079 3.942 41.8 1.971 25.445-3.942 50.889-9.856 77.242-9.856 19.991 0 39.983 3.942 59.066 3.942 7.27 0 15.448 0 22.718-3.942-9.087-1.972-17.266-9.857-25.444-15.77-15.448-11.829-33.623-21.685-54.523-19.714-22.718 0-44.527 9.857-66.336 7.885-23.627 0-45.436-9.856-67.245-21.684.908 0 .908 0 0 0zm14.54-61.11c0 1.971-.91 1.971-.91 3.942-5.452 15.77-9.087 31.541-11.813 49.283 26.353 15.77 55.432 27.598 85.42 23.656 23.626-3.943 48.161-11.828 72.697-3.943 19.992 5.914 36.348 23.656 54.523 33.512 6.36 3.943 13.63 0 19.083-5.914h-3.635c-9.087-1.971-14.54-9.856-20.9-15.77-19.992-21.685-42.71-41.398-72.698-39.426-29.079 0-59.975 9.856-82.693-1.972-16.357-11.827-28.17-27.598-39.075-43.368zm234.448 53.225c3.635-19.713 5.452-39.426.909-59.139-4.544-19.713-22.718-31.54-41.801-41.397-36.349-17.742-76.332-29.57-116.316-29.57h-1.817c-14.54 0-29.988 1.971-39.984 11.828-15.448 13.8-25.444 33.512-32.714 55.196l.91 1.972c15.447 23.655 32.713 47.31 62.7 47.31 26.353 0 54.523-9.856 80.876-1.97 21.81 5.913 39.075 23.655 54.523 41.397 4.544 3.942 9.087 9.856 14.54 9.856 4.543 0 5.452-5.914 7.27-7.885 5.452-7.885 8.178-17.742 10.904-27.598 0 1.971 0 1.971 0 0z"/>
</svg>
