<svg xmlns="http://www.w3.org/2000/svg" viewBox="0 0 124 124">
    <path fill="#00cad5" d="M0 0h124v124H0z"/>
    <path d="M38.129 85.336h14.387v-32.07H38.129zm-18.338.005h14.388V37.779H19.791zm50.256-6.44a7.682 7.682 0 00-7.672-7.688 7.668 7.668 0 00-7.6 7.688 7.6 7.6 0 007.6 7.612 7.616 7.616 0 007.672-7.612m19.398-25.63v18.612q0 2.474-2.039 2.476-2.068 0-2.068-2.476V53.271H70.992v15.03q0 7.94 3.73 12.41c3.2 3.817 7.424 5.549 12.669 5.549s9.469-1.732 12.67-5.549q3.73-4.468 3.73-12.41v-15.03H89.445" fill="#fff"/>
</svg>
