<svg viewBox="0 0 24 24" xmlns="http://www.w3.org/2000/svg">
  <rect width="24" height="24" fill="url(#gradient)" />
  <path
    d="M16.3266 5.04676C16.8833 5.18676 17.4267 5.45343 17.89 5.82343C18.07 5.96343 18.41 6.30343 18.5433 6.4801C19.12 7.22343 19.42 8.0801 19.42 8.9801C19.42 10.0268 19.0133 10.9968 18.2733 11.7101C17.8967 12.0701 17.48 12.3101 16.9267 12.4901C16.76 12.5401 16.3966 12.6201 16.3166 12.6201C16.22 12.6201 16.22 12.6401 16.32 12.8101C16.4467 13.0301 16.94 14.1334 16.6133 14.7068C16.2866 15.2801 15.38 14.9868 15.38 14.9968C15.38 15.0035 15.3966 15.0535 15.41 15.1101C15.5233 15.4768 15.5233 15.8201 15.4133 16.0368C15.3366 16.1901 15.1533 16.3035 14.93 16.3335C14.4933 16.3935 13.7466 16.1235 12.94 15.6235C12.8566 15.5701 12.7866 15.5301 12.7866 15.5335C12.7833 15.5368 12.7733 15.6235 12.76 15.7201C12.6933 16.3335 12.4666 17.1101 12.2066 17.6335C12.02 18.0068 11.8833 18.1968 11.6233 18.4501C10.8733 19.1835 9.8233 19.5601 8.73663 19.4935C8.48996 19.4768 8.25996 19.4368 7.99663 19.3701C7.68996 19.2901 7.46329 19.2068 7.17996 19.0601C6.78996 18.8601 6.47329 18.6268 6.14662 18.3035C5.61662 17.7735 5.26329 17.1601 5.07329 16.4301C4.92329 15.8501 4.90995 15.2001 5.04329 14.6134C5.26329 13.6301 5.84329 12.7934 6.62996 12.3301C7.05996 12.0768 7.64663 11.8634 8.23996 11.7468C8.43663 11.7068 8.69996 11.6734 8.80996 11.6734C8.86996 11.6734 8.91663 11.6701 8.91663 11.6634C8.91663 11.6601 8.84996 11.5468 8.76663 11.4101C8.35996 10.7334 8.13663 10.1634 8.10663 9.72011C8.06996 9.15677 8.39996 8.87344 8.98996 8.95677C9.08663 8.9701 9.2333 9.00344 9.3133 9.02344C9.3933 9.04677 9.45997 9.06344 9.4633 9.0601C9.46997 9.05344 8.9533 7.93343 9.46663 7.66343C9.97997 7.39676 11.19 7.82677 11.5633 8.0501C11.6633 8.10677 11.75 8.15677 11.7533 8.15677C11.76 8.15677 11.77 8.12343 11.7766 8.0801C11.84 7.6201 11.9933 7.11343 12.19 6.72676C12.4133 6.28343 12.8166 5.85343 13.3133 5.53009C14.1833 4.97009 15.29 4.79009 16.3266 5.04676ZM9.32663 12.4434L9.20663 12.4768C9.13997 12.4934 8.92663 12.5334 8.7333 12.5634C8.00329 12.6768 7.63663 12.7768 7.26996 12.9568C6.54329 13.3168 6.09662 13.9734 5.94329 14.9101C5.89996 15.1701 5.90329 15.7635 5.94996 16.0235C6.06996 16.6901 6.31996 17.2168 6.70329 17.6335C7.14329 18.1068 7.84996 18.4335 8.61663 18.5201C8.8133 18.5401 9.24997 18.5401 9.4433 18.5135C10.4333 18.3868 11.14 17.9301 11.5133 17.1801C11.6966 16.8168 11.81 16.4268 11.92 15.7635C11.98 15.4034 12.01 15.2535 12.0333 15.1901C12.0466 15.1535 12.04 15.1434 11.8566 15.0034C11.0533 14.3834 10.2166 13.5601 9.56997 12.7534L9.55663 12.7401C9.45663 12.6134 9.3633 12.4968 9.34997 12.4801L9.32663 12.4434ZM9.0233 9.72677C8.94663 9.7701 9.15996 10.3434 9.34663 10.7134C10.3433 12.7201 13.0333 15.2401 14.5933 15.5668C14.61 15.5701 14.7666 15.6035 14.7666 15.3501C14.7666 15.1001 14.64 14.7568 14.5233 14.6235C14.4066 14.4868 14.3866 14.4901 14.0466 14.2534C13.7033 14.0134 12.67 13.2334 11.95 12.5101C11.22 11.7768 10.6533 11.0968 10.1633 10.3634C10.0966 10.2401 10.0366 10.1534 9.98997 10.1034C9.9433 10.0501 9.8733 9.99677 9.7833 9.94344C9.43663 9.76677 9.09996 9.68677 9.0233 9.72677ZM14.3366 5.98676C13.6133 6.25676 13.03 7.0301 12.8433 7.68343C12.6533 8.33677 12.6533 8.6401 12.6133 8.96344C12.57 9.3001 12.18 9.50677 11.6633 9.1201C11.15 8.73344 10.5566 8.42677 10.22 8.37677C9.8833 8.3301 10.96 10.3168 12.3066 11.6334C13.9766 13.2701 15.6733 14.3901 15.7933 14.0534C15.91 13.7168 15.2466 12.8534 15.09 12.4601C14.93 12.0634 15.2733 11.8801 15.6733 11.7934C16.09 11.7068 16.9666 11.4901 17.3367 11.2301C18.1133 10.6834 18.5967 9.53344 18.3933 8.3801C18.29 7.79343 17.9767 7.17676 17.6133 6.79343C16.8633 6.00343 15.4633 5.56343 14.3366 5.98676Z"
    fill="#C1C1EA" />
  <path
    d="M15.8733 4.61356C16.4333 4.75356 16.9733 5.02356 17.4399 5.39023C17.6199 5.53356 17.9566 5.87356 18.0899 6.0469C18.6666 6.79023 18.9699 7.6469 18.9699 8.5469C18.9699 9.59357 18.5633 10.5636 17.8199 11.2769C17.4433 11.6369 17.0266 11.8802 16.4733 12.0569C16.3066 12.1069 15.9466 12.1902 15.8666 12.1902C15.7666 12.1902 15.7666 12.2069 15.8699 12.3769C15.9966 12.5969 16.4866 13.7003 16.1599 14.2736C15.8333 14.8469 14.9299 14.5536 14.9299 14.5636C14.9299 14.5703 14.9433 14.6203 14.9599 14.6803C15.0699 15.0436 15.0699 15.3903 14.9599 15.6069C14.8833 15.7603 14.6999 15.8703 14.4766 15.9003C14.0433 15.9603 13.2966 15.6936 12.4899 15.1903C12.4066 15.1369 12.3366 15.1003 12.3333 15.1036C12.3299 15.1069 12.3199 15.1903 12.3099 15.2869C12.2399 15.9036 12.0166 16.6769 11.7533 17.2036C11.5666 17.5736 11.4333 17.7636 11.1699 18.0169C10.4199 18.7503 9.37325 19.1303 8.28324 19.0603C8.03658 19.0436 7.80657 19.0069 7.54657 18.9369C7.23657 18.8569 7.00991 18.7736 6.72657 18.6269C6.3399 18.4303 6.0199 18.1936 5.69657 17.8703C5.16323 17.3403 4.81323 16.7269 4.62323 15.9969C4.4699 15.4169 4.4599 14.7669 4.5899 14.1803C4.8099 13.2002 5.39324 12.3602 6.1799 11.8969C6.60991 11.6436 7.19657 11.4302 7.78658 11.3136C7.98658 11.2736 8.24991 11.2402 8.35658 11.2402C8.41658 11.2402 8.46324 11.2369 8.46324 11.2302C8.46324 11.2269 8.39658 11.1136 8.31658 10.9769C7.90657 10.3002 7.68658 9.73024 7.65658 9.28691C7.61991 8.7269 7.94658 8.44357 8.53991 8.5269C8.63658 8.5369 8.77991 8.57024 8.85991 8.59357C8.93991 8.6169 9.00991 8.63024 9.01325 8.6269C9.01658 8.62024 8.49991 7.50023 9.01325 7.23357C9.52991 6.96357 10.7366 7.39357 11.1132 7.6169C11.2132 7.6769 11.2966 7.72357 11.3033 7.72357C11.3099 7.72357 11.3199 7.69024 11.3233 7.6469C11.3899 7.19023 11.5433 6.68356 11.7366 6.29356C11.9599 5.85023 12.3633 5.42023 12.8633 5.10023C13.7299 4.53689 14.8366 4.36023 15.8733 4.61356ZM8.87325 12.0102L8.75325 12.0436C8.68991 12.0602 8.47658 12.1002 8.27991 12.1302C7.55324 12.2469 7.18324 12.3436 6.81657 12.5236C6.0899 12.8836 5.64324 13.5402 5.4899 14.4769C5.44657 14.7369 5.45323 15.3303 5.49657 15.5903C5.6199 16.2603 5.86657 16.7869 6.2499 17.2003C6.69324 17.6736 7.39657 18.0003 8.16324 18.0869C8.35991 18.1103 8.79658 18.1069 8.98991 18.0803C9.97991 17.9536 10.6899 17.5003 11.0633 16.7469C11.2466 16.3836 11.3566 15.9936 11.4666 15.3303C11.5266 14.9703 11.5599 14.8203 11.5799 14.7569C11.5966 14.7203 11.5866 14.7103 11.4033 14.5703C10.6032 13.9503 9.76325 13.1269 9.11658 12.3202L9.10658 12.3069C9.00324 12.1802 8.91324 12.0669 8.89991 12.0469L8.87325 12.0102ZM8.56991 9.29357C8.49658 9.3369 8.70991 9.91357 8.89324 10.2802C9.89325 12.2869 12.5799 14.8103 14.1433 15.1336C14.1599 15.1369 14.3133 15.1703 14.3133 14.9203C14.3133 14.6669 14.1866 14.3236 14.0699 14.1903C13.9533 14.0536 13.9333 14.0603 13.5933 13.8203C13.2499 13.5836 12.2199 12.8002 11.4966 12.0769C10.7666 11.3469 10.1999 10.6669 9.70991 9.93024C9.64325 9.81024 9.58658 9.72357 9.53658 9.67024C9.48991 9.62024 9.41991 9.56357 9.32991 9.51024C8.98324 9.33357 8.64658 9.25357 8.56991 9.29357ZM13.8866 5.55356C13.1599 5.82356 12.5766 6.5969 12.3899 7.25357C12.2033 7.9069 12.2033 8.2069 12.1633 8.53024C12.1199 8.87024 11.7266 9.07357 11.2133 8.6869C10.6966 8.30024 10.1032 7.99357 9.76658 7.9469C9.42991 7.8969 10.5066 9.88357 11.8533 11.2002C13.5233 12.8369 15.2199 13.9569 15.3399 13.6203C15.4599 13.2836 14.7966 12.4236 14.6366 12.0269C14.4799 11.6302 14.8233 11.4469 15.2199 11.3636C15.6366 11.2736 16.5166 11.0569 16.8833 10.7969C17.6633 10.2502 18.1466 9.10024 17.9399 7.95023C17.8366 7.36023 17.5266 6.7469 17.1599 6.36023C16.4099 5.57023 15.0099 5.13023 13.8866 5.55356Z"
    fill="white" />
  <defs>
    <linearGradient id="gradient" x1="12" y1="0" x2="12" y2="24">
      <stop stop-color="#141A48" />
      <stop offset="1" stop-color="#272648" />
    </linearGradient>
  </defs>
</svg>
  