<svg xmlns="http://www.w3.org/2000/svg" viewBox="0 0 400 400">
    <path d="M0 0h400v400H0z"/>
    <path fill="#F9EC31" d="M290.8 283.4c-17.8 0-29.6-11.1-29.6-27.6 0-16.8 11.8-28.3 29.3-28.3 17.2 0 29.6 11.4 29.9 27.9.4 16.5-12.1 28-29.6 28z"/>
    <path fill="#FFF" d="M238.5 207.5c-.3-16.3-.7-32.9-3-48.9-3.7-25.3-20-40.6-46.9-44.6-22.3-3.3-41.3 2-58.6 16.3l-1 1-1.7-15.3H81.5v166.3h49.2v-23c0-20.6 0-41.6.3-62.5.3-8.6 2.3-17 5.7-23.6 6-11.6 20.6-18.3 33.3-15.3 11.6 2.7 18.3 11 21 25.6.7 4.7.7 9.6.7 14.3v84.5h47.2v-19c0-15.3 0-29.6-.3-44.6.2-3.9.2-7.5-.1-11.2z"/>
</svg>
