<svg xmlns="http://www.w3.org/2000/svg" width="410" height="410">
    <path d="M301.755 185.569a73.592 73.592 0 00-2.186-32.439 76.035 76.035 0 00-19.118-32.218c-9.083-8.992-20.29-15.177-32.255-17.075a48.4 48.4 0 00-21.466 1.364m127.617 106.028a127.641 127.641 0 00-.062-79.494 132.238 132.238 0 00-29.782-50.166 117.579 117.579 0 00-48.272-31.006 104.116 104.116 0 00-65.335.081m-75.03 102.991c-16.822 16.373-11.754 53.232 12.272 84.588s58.3 45.839 78.482 33.855m54.776 71.488c-.735 1.232-4.633 4.521-18.785 14.975-27.66 20.433-93.309-18.169-150.454-92.748s-76.558-147.85-50.414-169.4c14.083-11.612 17.991-14.219 19.272-14.34M287.21 333.3l-52.835-68.955a9.077 9.077 0 011.679-12.687L260 233.315a9.076 9.076 0 0112.687 1.679l52.835 68.956a9.076 9.076 0 01-1.679 12.687l-23.942 18.344a9.075 9.075 0 01-12.687-1.679zm-142-185.318L92.375 79.027a9.076 9.076 0 011.679-12.687L118 48a9.076 9.076 0 0112.687 1.679l52.835 68.955a9.076 9.076 0 01-1.679 12.687l-23.942 18.345a9.076 9.076 0 01-12.687-1.679z" fill="none" stroke="#424242" stroke-linecap="round" stroke-linejoin="round" stroke-width="14"/>
</svg>
