<svg width="32" height="32" viewBox="0 0 32 32" fill="none" xmlns="http://www.w3.org/2000/svg">
<g clip-path="url(#clip0_6_105)">
<path d="M0 8C0 3.58172 3.58172 0 8 0H24C28.4183 0 32 3.58172 32 8V24C32 28.4183 28.4183 32 24 32H8C3.58172 32 0 28.4183 0 24V8Z" fill="white"/>
<path d="M25.1716 21.4376L27.9324 10.6589C28.2168 9.54847 27.5782 8.40468 26.506 8.10413L25.1716 7.73009V9.60393L26.0582 9.85245C26.1981 9.89165 26.2814 10.0408 26.2443 10.1857L25.1716 14.3735V21.4376Z" fill="black"/>
<path d="M6.8069 7.7361L5.49398 8.10413C4.42183 8.40468 3.78323 9.54847 4.06763 10.6589L6.8069 21.3538V14.2897L5.75573 10.1857C5.71863 10.0408 5.80193 9.89165 5.94178 9.85245L6.8069 9.60994V7.7361Z" fill="black"/>
<path fill-rule="evenodd" clip-rule="evenodd" d="M7.47427 8.07988C7.47427 6.9312 8.37479 6 9.48565 6H22.5141C23.6249 6 24.5255 6.93119 24.5255 8.07988V23.9201C24.5255 25.0688 23.6249 26 22.5141 26H9.48565C8.3748 26 7.47427 25.0688 7.47427 23.9201V8.07988ZM9.48565 7.80859C9.34076 7.80859 9.22329 7.93006 9.22329 8.07988V23.9201C9.22329 24.0699 9.34075 24.1914 9.48565 24.1914H22.5141C22.659 24.1914 22.7764 24.0699 22.7764 23.9201V8.07988C22.7764 7.93006 22.659 7.80859 22.5141 7.80859H9.48565Z" fill="black"/>
<path d="M19.8035 13.0072C20.0639 12.7349 20.0639 12.2926 19.8035 12.0202C19.5432 11.7479 19.1204 11.7479 18.8601 12.0202L12.1957 18.9923C11.9354 19.2646 11.9354 19.7069 12.1957 19.9792C12.456 20.2516 12.8788 20.2516 13.1391 19.9792L19.8035 13.0072ZM14.6678 13.212C14.6678 12.8422 14.5273 12.4875 14.2774 12.226C14.0274 11.9645 13.6884 11.8176 13.3349 11.8176C12.9814 11.8176 12.6424 11.9645 12.3924 12.226C12.1424 12.4875 12.002 12.8422 12.002 13.212C12.002 13.5818 12.1424 13.9365 12.3924 14.198C12.6424 14.4595 12.9814 14.6064 13.3349 14.6064C13.6884 14.6064 14.0274 14.4595 14.2774 14.198C14.5273 13.9365 14.6678 13.5818 14.6678 13.212ZM19.9993 18.7896C19.9993 18.4198 19.8589 18.0651 19.6089 17.8036C19.359 17.5421 19.0199 17.3952 18.6664 17.3952C18.3129 17.3952 17.9739 17.5421 17.7239 17.8036C17.474 18.0651 17.3335 18.4198 17.3335 18.7896C17.3335 19.1594 17.474 19.5141 17.7239 19.7756C17.9739 20.0371 18.3129 20.184 18.6664 20.184C19.0199 20.184 19.359 20.0371 19.6089 19.7756C19.8589 19.5141 19.9993 19.1594 19.9993 18.7896Z" fill="black"/>
</g>
<defs>
<clipPath id="clip0_6_105">
<rect width="32" height="32" fill="white"/>
</clipPath>
</defs>
</svg>
