<?xml version="1.0" encoding="utf-8"?>
<svg version="1.1" id="Layer_1" xmlns="http://www.w3.org/2000/svg" xmlns:xlink="http://www.w3.org/1999/xlink" x="0px" y="0px"
	 viewBox="0 0 400 400" style="enable-background:new 0 0 400 400;" xml:space="preserve">
	 	<circle cx="200" cy="200" r="200" fill="#FFF" />
<g fill="#1D1D1B">
	<path d="M200,0C89.5,0,0,89.5,0,200c0,110.5,89.5,200,200,200c110.5,0,200-89.5,200-200C400,89.5,310.5,0,200,0z
		 M200,389.8C95.3,389.8,10.2,304.7,10.2,200C10.2,95.3,95.3,10.2,200,10.2c104.7,0,189.9,85.2,189.9,189.8
		C389.9,304.7,304.7,389.8,200,389.8z"/>
	<path d="M321.3,190l8.6,8.6c0-2.9-0.3-5.7-0.5-8.6c-4.9-63.2-56-114.6-119.5-119.5c-2.3-0.2-4.5-0.5-6.8-0.5
		c-0.6,0-1.2,0-1.7,0l8.7,8.7L321.3,190z M320.1,180.8l-101-101C271.1,88.1,311.9,129,320.1,180.8z"/>
	<path d="M78.7,210.7l-8.6-8.6c0.1,2.9,0.3,5.7,0.6,8.6c5.2,63.1,55.5,113.4,118.6,118.6c2.8,0.2,5.7,0.5,8.6,0.6
		l-8.6-8.6L78.7,210.7z M79.9,220L180,320C128.8,311.6,88.4,271.2,79.9,220z"/>
	<path d="M329.8,202.7l-8.6,8.6L211.4,321.2l-8.6,8.6c3-0.1,6-0.4,9-0.6c62.2-5.6,111.8-55.2,117.4-117.4
		C329.5,208.8,329.8,205.8,329.8,202.7z M221.1,319.9l98.9-98.8C311.1,271.4,271.4,311.1,221.1,319.9z"/>
	<path d="M321.5,206.3l5.6-5.6l-5.6-5.6L204.9,78.4l-5.9-5.9l-6,6L78.5,193l-6.4,6.4l6.3,6.3l115.9,115.9l5.9,5.9l6-6
		L321.5,206.3z"/>
	<path d="M200,13.5C97.2,13.5,13.6,97.2,13.6,200c0,102.8,83.6,186.5,186.4,186.5c102.8,0,186.4-83.6,186.4-186.5
		C386.5,97.2,302.8,13.5,200,13.5z M343,135.7c0.5-1.1,1.3-1.9,2.5-2.4c1.2-0.5,2.4-0.5,3.6,0c1.2,0.5,2.1,1.4,2.6,2.5
		c0.5,1.2,0.5,2.4,0,3.5c-0.5,1.2-1.3,2-2.5,2.5c-1.2,0.5-2.4,0.5-3.6,0c-1.2-0.5-2.1-1.4-2.5-2.6
		C342.5,138.1,342.5,136.9,343,135.7z M342.2,174.8c0.3-2.1,1.1-4.1,2.4-5.9c2.5-3.7,6.2-6,11.1-6.7c4.8-0.7,9.1,0.5,12.6,3.5
		c1.7,1.5,3,3.2,3.9,5c0.8,1.7,1.5,4,1.9,7.2l0.9,6.2c0.1,0.6-0.3,1.2-1,1.3l-29.4,4.2c-0.1,0-0.1,0-0.2,0c-0.2,0-0.5-0.1-0.7-0.2
		c-0.2-0.2-0.4-0.5-0.4-0.8l-0.9-6.2C341.9,179.3,341.8,176.8,342.2,174.8z M316.9,98.8c0,0.3-0.1,0.6-0.3,0.9
		c-1.6,1.6-1.9,2.5-2,2.9c-0.4,1.3-0.1,2.6,0.9,3.8c0.8,1,1.7,1.4,2.8,1.6c1.1,0.1,2.1-0.2,3.1-1c0.4-0.3,0.7-0.7,0.9-1
		c0.2-0.3,0.4-0.7,0.4-1.1c0.1-0.5,0.1-1,0-1.6c-0.1-0.6-0.2-1.3-0.4-2.1l-1-3.2c-1.5-5.1-0.7-9,2.5-11.5c2.1-1.7,4.6-2.4,7.4-1.9
		c2.7,0.4,5,1.9,7,4.2c2.6,3.2,3.1,7,1.5,11.3c-0.2,0.6-0.9,0.9-1.5,0.7l-4.3-1.6c-0.3-0.1-0.5-0.3-0.6-0.6c-0.1-0.3-0.1-0.6,0-0.9
		c0.6-1.6,0.6-2.3,0.6-2.7c-0.1-0.6-0.4-1.3-0.9-2c-0.7-0.8-1.5-1.3-2.4-1.5c-0.9-0.1-1.5,0-2.1,0.5c-0.8,0.7-0.9,2-0.3,3.9l1,3.3
		c0.9,2.9,1.1,5.4,0.7,7.5c-0.5,2.2-1.7,4-3.6,5.6c-2.2,1.8-4.6,2.7-7.2,2.7c-0.4,0-0.8,0-1.2-0.1c-3-0.3-5.7-1.8-7.7-4.3
		c-1.9-2.4-2.8-5-2.7-7.8c0.2-2.7,1.4-5.3,3.6-7.8c0.4-0.4,1.1-0.5,1.5-0.1l4,3.1C316.8,98.1,316.9,98.4,316.9,98.8z M277.9,79
		l19.3-26c0.2-0.2,0.4-0.4,0.7-0.5c0.3,0,0.6,0,0.8,0.2l14.3,10.6c0.5,0.4,0.6,1.1,0.2,1.6l-2.7,3.7c-0.2,0.2-0.4,0.4-0.7,0.5
		c-0.3,0-0.6,0-0.8-0.2l-9.5-7.1l-3.2,4.4l9.2,6.8c0.5,0.4,0.6,1.1,0.2,1.6l-2.8,3.7c-0.2,0.2-0.4,0.4-0.7,0.4
		c-0.3,0.1-0.6,0-0.8-0.2l-9.2-6.8l-5.1,6.9l9.5,7.1c0.5,0.4,0.6,1.1,0.2,1.6L294,91c-0.2,0.3-0.4,0.4-0.7,0.5c-0.1,0-0.1,0-0.2,0
		c-0.3,0-0.5-0.1-0.7-0.2l-14.3-10.6C277.6,80.2,277.5,79.5,277.9,79z M238.9,44.2c1.7-4.6,4.8-8,9.2-10c4.4-2.1,9-2.2,13.6-0.6
		c2.5,0.9,4.7,2.3,6.4,4.1c1.7,1.8,3.2,4.2,4.3,7.1c0.1,0.4,0,0.9-0.5,1.1l-4.4,1.9c-0.2,0.1-0.5,0.1-0.7,0
		c-0.2-0.1-0.4-0.3-0.5-0.5c-1.2-4-3.4-6.5-6.8-7.8c-3-1.1-5.9-1-8.7,0.3c-2.8,1.3-4.7,3.4-5.8,6.5c-1.2,3.2-1,6.1,0.5,9
		c1.4,2.7,3.4,4.5,5.8,5.4c2.1,0.7,4.2,0.7,6.4-0.1c1.8-0.7,3.2-1.7,4.1-3.1l-6.7-2.4c-0.4-0.2-0.7-0.7-0.5-1.1l1.6-4.3
		c0.1-0.2,0.2-0.4,0.4-0.5c0.2-0.1,0.4-0.1,0.7,0l12.6,4.6c0.4,0.2,0.7,0.7,0.5,1.1l-0.4,1c-0.8,2.3-1.9,4.4-3.1,6
		c-1.2,1.5-2.7,2.8-4.6,3.8c-2.4,1.3-4.9,2-7.5,2c-1.9,0-3.8-0.3-5.7-1.1c-4.5-1.6-7.7-4.7-9.8-9C237.4,53.2,237.3,48.7,238.9,44.2z
		 M214.1,24.6c0-0.3,0.2-0.6,0.4-0.8c0.2-0.2,0.5-0.3,0.8-0.3l4.8,0.5c0.6,0.1,1.1,0.6,1,1.2L218,57.5c0,0.3-0.2,0.6-0.4,0.8
		c-0.2,0.2-0.5,0.3-0.7,0.3c0,0-0.1,0-0.1,0l-4.8-0.5c-0.6,0-1.1-0.6-1-1.2L214.1,24.6z M171.4,25l5.7-0.6c4.5-0.5,7.9,0,10.2,1.6
		c2.6,1.7,4,4.3,4.4,7.5c0.3,2.5-0.2,4.8-1.5,6.8c-1,1.5-2.3,2.7-3.9,3.6l10.4,11.4c0.3,0.3,0.4,0.8,0.2,1.2
		c-0.1,0.4-0.5,0.7-0.9,0.7l-6,0.6c-0.4,0.1-0.7-0.1-1-0.4l-9.3-10.6l1.2,10.9c0.1,0.6-0.4,1.2-1,1.2l-4.8,0.6c0,0-0.1,0-0.1,0
		c-0.2,0-0.5-0.1-0.7-0.3c-0.2-0.2-0.4-0.5-0.4-0.8l-3.6-32.2C170.3,25.6,170.8,25,171.4,25z M129.3,37.4l16.6-6.3
		c0.3-0.1,0.6-0.1,0.9,0c0.3,0.1,0.5,0.4,0.6,0.6l1.7,4.3c0.2,0.6-0.1,1.2-0.7,1.5l-11.1,4.2l1.9,5.1l10.7-4.1
		c0.3-0.1,0.6-0.1,0.9,0c0.3,0.1,0.5,0.4,0.6,0.6l1.7,4.3c0.2,0.6-0.1,1.2-0.7,1.5l-10.7,4.1l3,7.9l11.1-4.2c0.3-0.1,0.6-0.1,0.9,0
		c0.3,0.1,0.5,0.4,0.6,0.6l1.7,4.3c0.2,0.6-0.1,1.2-0.7,1.5l-16.6,6.3c-0.1,0.1-0.3,0.1-0.4,0.1c-0.2,0-0.3,0-0.5-0.1
		c-0.3-0.1-0.5-0.4-0.6-0.6l-11.5-30.3C128.4,38.3,128.7,37.7,129.3,37.4z M84.4,65.1l4.3-3.1c0.4-0.3,0.9-0.3,1.3,0l18,11.4
		l-5.2-20.8c-0.1-0.4,0.1-0.9,0.4-1.2l4.3-3.1c0.3-0.2,0.7-0.3,1.1-0.1s0.6,0.4,0.7,0.8l8.6,36.5c0.1,0.1,0.1,0.3,0.1,0.5
		c0,0.6-0.5,1.1-1.1,1.1c0,0,0,0,0,0c-0.2,0-0.4-0.1-0.6-0.2L84.5,67c-0.3-0.2-0.5-0.5-0.5-0.9C84,65.7,84.1,65.3,84.4,65.1z
		 M62.1,87.8c2.6-3.2,6.2-4.5,10.8-3.8c0.6,0.1,1,0.7,1,1.3l-0.7,4.6c0,0.3-0.2,0.6-0.4,0.8c-0.2,0.2-0.6,0.3-0.9,0.2
		c-0.6-0.1-1.1-0.1-1.6-0.1c-0.6,0-0.9,0.1-1.1,0.2c-0.6,0.2-1.2,0.7-1.7,1.3c-0.7,0.8-1,1.7-1,2.6c0,0.9,0.3,1.5,1,2
		c0.9,0.7,2.2,0.5,3.9-0.4l3-1.7c2.6-1.5,5-2.2,7.1-2.2c2.3,0,4.4,0.8,6.3,2.4c2.6,2.1,4,4.7,4.3,7.7c0.3,3.1-0.6,5.9-2.6,8.5
		c-1.9,2.4-4.3,3.8-7,4.3c-0.5,0.1-1,0.1-1.5,0.1c-2.2,0-4.5-0.7-6.8-2c-0.5-0.3-0.7-1-0.4-1.5l2.3-4.6c0.1-0.3,0.4-0.5,0.7-0.6
		c0.3-0.1,0.6,0,0.9,0.1c1.9,1.2,2.8,1.4,3.2,1.4c0.1,0,0.2,0,0.3,0c1.2,0,2.3-0.6,3.2-1.7c0.8-1,1.1-2,1-3.1
		c-0.1-1.1-0.7-2.1-1.7-2.9c-0.4-0.3-0.8-0.6-1.2-0.7c-0.4-0.1-0.8-0.2-1.2-0.2c-0.5,0-1,0.1-1.6,0.3c-0.6,0.2-1.3,0.5-2,0.9l-3,1.6
		c-4.6,2.5-8.7,2.4-11.8-0.1c-2.1-1.7-3.3-4-3.4-6.8C59.3,92.7,60.2,90.1,62.1,87.8z M48.2,135.7c0.5-1.1,1.3-1.9,2.5-2.4
		c1.2-0.5,2.4-0.5,3.6,0c1.2,0.5,2.1,1.4,2.6,2.5c0.5,1.2,0.5,2.4,0,3.5c-0.5,1.2-1.3,2-2.6,2.5c-1.2,0.5-2.4,0.5-3.6,0
		c-1.2-0.5-2.1-1.4-2.6-2.6C47.7,138.1,47.7,136.9,48.2,135.7z M26,177.4c0.4-2.9,1.6-5.2,3.5-6.8c1.9-1.6,4.5-2.5,7.5-2.5
		c0.6,0,1.1,0.4,1.1,1l0.4,4.7c0,0.3-0.1,0.6-0.3,0.9c-0.2,0.2-0.5,0.4-0.8,0.4l-0.4,0c-1.7,0-2.5,0.3-2.8,0.4
		c-1.1,0.6-1.7,1.6-1.9,3c-0.1,1.1,0.1,2,0.7,2.8c0.6,0.8,1.5,1.3,2.6,1.4c0.4,0.1,0.9,0.1,1.2,0c0.3-0.1,0.7-0.2,1-0.4
		c0.3-0.2,0.7-0.6,1.1-1c0.4-0.4,0.8-1,1.2-1.6l1.6-2.7c2.5-4.2,5.7-6.1,9.4-5.6c2.6,0.4,4.6,1.7,6,3.9c1.4,2.1,1.9,4.7,1.5,7.5
		c-0.5,3.8-2.8,6.6-6.7,8.3c-0.1,0.1-0.3,0.1-0.4,0.1c-0.1,0-0.3,0-0.4-0.1c-0.3-0.1-0.5-0.3-0.6-0.6l-1.6-3.9
		c-0.3-0.6,0-1.2,0.6-1.5c1.4-0.6,1.9-1.1,2.1-1.3c0.4-0.5,0.6-1.1,0.7-1.9c0.1-1,0-1.8-0.5-2.5c-0.4-0.6-0.9-1-1.6-1.1
		c-0.1,0-0.1,0-0.2,0c-0.8,0-1.7,0.7-2.5,2.2l-1.6,2.8c-1.4,2.4-3,4.2-4.7,5.2c-1.8,1.1-3.8,1.4-6.1,1.1c-3-0.4-5.4-1.8-7.1-4.1
		C26.2,183.1,25.5,180.4,26,177.4z M30.7,237.6c-0.3,0-0.7-0.2-0.9-0.5c-1.9-2.5-3.1-5.3-3.5-8.3c-0.6-4.6,0.4-8.7,3.2-12.3
		c2.7-3.6,6.4-5.8,10.9-6.4c4-0.5,7.8,0.4,11.3,2.6c4.3,2.8,6.8,6.8,7.5,12.1c0.4,2.9,0,5.8-1.2,8.6c-0.1,0.4-0.5,0.7-0.9,0.7
		l-5.3,0.7c-0.4,0-0.9-0.1-1.1-0.5c-0.2-0.4-0.2-0.8,0-1.2c1.7-2.6,2.3-5.3,2-7.8c-0.4-2.8-1.6-4.9-3.8-6.6
		c-2.2-1.7-4.7-2.3-7.5-1.9c-2.8,0.4-5,1.6-6.7,3.8c-1.7,2.1-2.3,4.6-1.9,7.3c0.2,1.4,0.6,2.6,1.1,3.5c0.3,0.6,0.7,1.1,1.2,1.7
		c0.5,0.6,1.1,1.2,1.7,1.8c0.3,0.3,0.5,0.7,0.3,1.2c-0.1,0.4-0.5,0.7-0.9,0.8l-5.4,0.7C30.8,237.6,30.8,237.6,30.7,237.6z
		 M46.2,285.3c-0.1,0-0.3,0-0.4-0.1c-0.3-0.1-0.5-0.3-0.6-0.6l-1.8-4.1c-0.3-0.6,0-1.2,0.6-1.5l11.7-5.3l-4.5-9.8l-11.7,5.3
		c-0.3,0.1-0.6,0.1-0.9,0c-0.3-0.1-0.5-0.3-0.6-0.6l-1.9-4.1c-0.3-0.6,0-1.2,0.6-1.5l27.1-12.3c0.3-0.1,0.6-0.1,0.9,0
		c0.3,0.1,0.5,0.3,0.6,0.6l1.9,4.1c0.2,0.6,0,1.2-0.6,1.5l-9.6,4.3l4.5,9.8l9.6-4.3c0.3-0.1,0.6-0.1,0.9,0c0.3,0.1,0.5,0.3,0.6,0.6
		l1.9,4.1c0.2,0.6,0,1.2-0.6,1.5l-27.1,12.3C46.5,285.3,46.4,285.3,46.2,285.3z M94.4,296.7l-14.2,31.7c-0.1,0.3-0.5,0.6-0.9,0.6
		c0,0-0.1,0-0.2,0c-0.3,0-0.6-0.1-0.8-0.4L75,325c-0.3-0.3-0.3-0.8-0.2-1.2l3-6.5l-7.6-8.5l-7,2.1c-0.4,0.1-0.9,0-1.2-0.3l-3.2-3.7
		c-0.3-0.3-0.3-0.7-0.2-1.1c0.1-0.4,0.4-0.7,0.8-0.8l33.5-9.8c0.4-0.1,0.9,0,1.2,0.4C94.5,295.8,94.6,296.3,94.4,296.7z M133,331.9
		l-2.8,4.5c-0.2,0.4-0.7,0.6-1.1,0.5c-0.5-0.1-0.8-0.4-1-0.8c-1-3-2.5-5.2-4.7-6.5c-2.3-1.5-4.8-1.9-7.5-1.2
		c-2.7,0.6-4.8,2.2-6.3,4.6c-1.5,2.4-2,4.9-1.4,7.5c0.6,2.7,2,4.7,4.4,6.2c1.2,0.8,2.3,1.2,3.4,1.4c0.6,0.1,1.2,0.2,1.8,0.2h0.2
		c0.7,0,1.6-0.1,2.5-0.2c0.4,0,0.8,0.1,1.1,0.5c0.2,0.3,0.2,0.8,0,1.2l-2.9,4.6c-0.2,0.4-0.6,0.5-1,0.5c0,0-0.1,0-0.1,0
		c-3.2-0.2-6.1-1.1-8.6-2.7c-3.9-2.5-6.4-6-7.4-10.4c-1-4.4-0.3-8.6,2.1-12.4c2.2-3.4,5.3-5.8,9.3-7c4.9-1.5,9.6-0.8,14.1,2
		c2.4,1.5,4.4,3.7,5.9,6.4C133.2,331.1,133.2,331.5,133,331.9z M173.1,344.4l-15.8,8.9l8.4,18.4c0.2,0.4,0.1,0.9-0.2,1.2
		c-0.2,0.3-0.5,0.4-0.8,0.4c-0.1,0-0.2,0-0.3,0l-5.8-1.6c-0.3-0.1-0.6-0.3-0.7-0.6l-6.2-14.1l-3,10.8c-0.1,0.3-0.3,0.5-0.5,0.7
		c-0.3,0.1-0.6,0.2-0.9,0.1l-4.3-1.2c-0.6-0.1-1-0.8-0.8-1.4l7.9-28.6c0.1-0.3,0.3-0.5,0.5-0.7c0.3-0.2,0.6-0.2,0.9-0.1l4.3,1.2
		c0.6,0.2,1,0.8,0.8,1.4l-2.4,8.8l12-7c0.3-0.1,0.6-0.2,0.9-0.1l5.9,1.6c0.4,0.1,0.8,0.5,0.8,1C173.8,343.8,173.5,344.2,173.1,344.4
		z M206.9,349.4c0,0.3-0.1,0.6-0.3,0.8c-0.2,0.2-0.5,0.3-0.8,0.3l-9.3,0l0,4.9l9,0c0.3,0,0.6,0.1,0.8,0.3c0.2,0.2,0.3,0.5,0.3,0.8
		l0,4.2c0,0.6-0.5,1.2-1.1,1.2h0l-9-0.1l-0.1,13.1c0,0.3-0.1,0.6-0.3,0.8c-0.2,0.2-0.5,0.3-0.8,0.3l-4.5,0c-0.6,0-1.1-0.5-1.1-1.2
		l0.2-29.7c0-0.3,0.1-0.6,0.3-0.8c0.2-0.2,0.5-0.3,0.8-0.3h0l14.9,0.1c0.6,0,1.1,0.5,1.1,1.1L206.9,349.4z M200,333.4
		c-2.4,0-4.7-0.2-7-0.4C125.1,329.5,70.5,275,67,207c-0.1-2.3-0.4-4.6-0.4-7l0.4-8.7c4.3-66.4,57.2-120,124.3-124.3
		c0.3,0,0.6-0.1,1-0.1c3.6-0.2,7.2-0.3,10.8-0.2c1,0,2.1,0.2,3.1,0.2c33.8,1.6,65.4,15.6,89.1,39.9c23.1,23.6,36.2,54.3,37.7,87
		c0.1,2.1,0.3,4.2,0.3,6.3c0,2.7-0.2,5.3-0.4,8c-4,67.2-57.8,121-125,125L200,333.4z M256.5,361.5c-2.2,3.8-5.5,6.4-9.9,7.7
		c-1.5,0.4-3,0.7-4.5,0.7c-2.4,0-4.7-0.5-7.1-1.6c-4.2-1.9-7.1-5.3-8.4-10c-1.2-4.1-0.7-8.2,1.5-12.1c2.2-3.9,5.5-6.4,9.8-7.7
		c4.2-1.2,8.4-0.8,12.3,1.3c3.9,2.1,6.5,5.3,7.7,9.6C259.3,353.5,258.7,357.6,256.5,361.5z M303.2,341.3l-4.7,3
		c-0.2,0.1-0.5,0.2-0.8,0.1l-12.7-5.1l5.8,9c0.3,0.4,0.1,0.9-0.2,1.2l-3.8,2.5c-0.1,0.1-0.3,0.1-0.5,0.1c-0.1,0-0.1,0-0.1,0
		c-0.3-0.1-0.5-0.2-0.6-0.4l-16.2-24.9c-0.3-0.4-0.1-0.9,0.3-1.2l4.5-2.9c3.5-2.2,6.5-3.3,9-2.9c2.8,0.3,5,1.8,6.6,4.2
		c1.2,1.9,1.8,4,1.5,6.1c-0.2,1.7-0.8,3.3-1.9,4.6l13.6,5.1c0.3,0.1,0.5,0.4,0.5,0.7C303.6,340.9,303.4,341.1,303.2,341.3z
		 M331,314.3c-0.7,1.3-1.7,2.8-3.2,4.4l-4.6,5.1c-0.1,0.2-0.4,0.3-0.6,0.3h-0.1c-0.2,0-0.4-0.1-0.6-0.2l-22-19.9
		c-0.3-0.3-0.4-0.9-0.1-1.2l3-3.4c1.4-1.6,2.6-2.7,3.7-3.4c1.2-0.8,2.4-1.2,3.6-1.4c1.3-0.1,2.5,0,3.8,0.5c1.3,0.4,2.4,1.1,3.4,1.9
		c1.4,1.3,2.3,2.9,2.6,4.8c1.3-0.5,2.6-0.6,4-0.5c1.8,0.2,3.4,1,4.8,2.3c1.9,1.7,2.9,3.9,3,6.4C331.9,311.5,331.6,312.9,331,314.3z
		 M356.9,278c-1.6,3.1-4.1,5.3-7.3,6.4c-1.1,0.4-2.3,0.5-3.4,0.5c-1.9,0-3.8-0.5-5.7-1.4l-17.1-8.6c-0.6-0.3-0.8-1-0.5-1.5l2-4.1
		c0.1-0.3,0.4-0.5,0.7-0.5c0.3-0.1,0.6-0.1,0.9,0.1l16,8c2,1,3.7,1.5,4.9,1.2c1.7-0.3,3-1.3,3.8-3c0.9-1.7,0.9-3.3,0.1-4.9
		c-0.5-1-1.9-2.1-3.9-3.1l-16-8c-0.6-0.3-0.8-0.9-0.5-1.5l2-4c0.1-0.3,0.4-0.5,0.7-0.6c0.3-0.1,0.6-0.1,0.9,0.1l17.1,8.6
		c3.1,1.5,5.1,3.8,6.1,6.8C358.7,271.6,358.4,274.9,356.9,278z M370.5,234.1c0.6,0.1,1,0.7,0.9,1.3l-0.7,4.4c0,0.3-0.2,0.6-0.4,0.7
		c-0.2,0.1-0.4,0.2-0.7,0.2c-0.1,0-0.1,0-0.2,0l-31.3-5.1c-0.5-0.1-0.8-0.4-0.9-0.9c-0.1-0.5,0.1-0.9,0.5-1.2l23.6-16.5l-17.6-2.9
		c-0.6-0.1-1-0.7-0.9-1.3l0.7-4.4c0-0.3,0.2-0.6,0.4-0.7c0.3-0.2,0.6-0.2,0.8-0.2l31.1,5.1c0.5,0.1,0.8,0.4,0.9,0.9
		c0.1,0.5-0.1,0.9-0.5,1.2l-23.6,16.5L370.5,234.1z"/>
	<polygon points="80.8,310.9 83.6,304.7 77.1,306.7 	"/>
	<path d="M247.5,344.4c-1.6-0.9-3.2-1.3-4.9-1.3c-1,0-2.1,0.1-3.1,0.5c-2.8,0.8-5,2.5-6.4,5c-1.4,2.5-1.7,5.2-0.9,8
		c0.9,3,2.6,5.2,5.2,6.5c1.7,0.8,3.3,1.3,5,1.3c1,0,1.9-0.1,2.9-0.4c2.8-0.8,5-2.5,6.4-5.1c1.4-2.6,1.7-5.2,0.9-8.1
		C251.7,348,250,345.8,247.5,344.4z M239.8,351.8c-0.3,0.6-0.8,1-1.5,1.2c-0.7,0.2-1.3,0.1-1.9-0.2c-0.6-0.4-1-0.9-1.2-1.5
		c-0.2-0.6-0.1-1.3,0.2-1.9c0.3-0.6,0.8-1,1.5-1.2c0.7-0.2,1.3-0.1,1.9,0.2c0.6,0.3,1,0.8,1.2,1.5
		C240.2,350.5,240.2,351.2,239.8,351.8z M247.4,349.6c-0.3,0.6-0.8,1-1.5,1.2c-0.7,0.2-1.3,0.1-1.9-0.2c-0.6-0.4-1-0.9-1.2-1.5
		c-0.2-0.7-0.1-1.3,0.2-1.9c0.3-0.6,0.8-1,1.5-1.2c0.7-0.2,1.3-0.1,1.9,0.2c0.6,0.3,1,0.8,1.2,1.5
		C247.8,348.3,247.8,349,247.4,349.6z"/>
	<path d="M278.1,327.2l-0.6,0.4l4.2,6.5l0.5-0.3c4.2-2.7,3.4-5,2.5-6.4C283.2,325.2,281.1,325.2,278.1,327.2z"/>
	<path d="M311,300.4c-0.8,0.1-1.7,0.7-2.6,1.6l-0.5,0.6l5.1,4.6l0.4-0.4c1-1.1,1.5-2.1,1.5-2.9c0-0.8-0.5-1.6-1.3-2.5
		C312.7,300.7,311.9,300.3,311,300.4z"/>
	<path d="M321.9,307.2c-1.1,0.1-2.4,1-3.9,2.7l-1,1.1l5.4,4.9l1.3-1.5c1.2-1.4,1.9-2.6,2-3.7c0-1.1-0.3-1.9-1.1-2.7
		C323.8,307.3,322.9,307.1,321.9,307.2z"/>
	<path d="M348.9,182.1l18.8-2.7l-0.1-0.9c-0.3-1.9-0.7-3.4-1.2-4.6c-0.6-1.1-1.4-2.1-2.3-2.9c-1.7-1.4-3.5-2.1-5.7-2.1
		c-0.5,0-1.1,0-1.6,0.1c-2.9,0.4-5.1,1.7-6.6,3.9c-1.3,2-1.7,4.8-1.3,8.3L348.9,182.1z"/>
	<path d="M179.4,39c5.1-0.6,5.5-2.9,5.3-4.8c-0.2-1.5-0.8-3.3-4.5-3.3c-0.5,0-1,0-1.5,0.1l-0.6,0.1l0.9,8L179.4,39z"/>
	<path d="M187.9,78.8l8.7-8.7c-1.4,0-2.7,0-4.1,0.1c-1.7,0.1-3.3,0.4-5,0.5C125.5,76.7,76.8,126,70.9,187.4
		c-0.3,3-0.6,6-0.7,9.1l8.6-8.6L187.9,78.8z M178.1,80.2l-97.9,97.9C89.2,128.4,128.4,89.2,178.1,80.2z"/>
</g>

<g fill="#FFFFFF">
	<path d="M211.9,58l4.8,0.5c0,0,0,0,0.1,0c0.3,0,0.5-0.1,0.7-0.3c0.2-0.2,0.4-0.5,0.4-0.8l3.2-32.2
		c0.1-0.6-0.4-1.2-1-1.2l-4.8-0.5c-0.3,0-0.6,0.1-0.8,0.3c-0.2,0.2-0.4,0.5-0.4,0.8l-3.2,32.2C210.9,57.4,211.3,58,211.9,58z"/>
	<path d="M289.5,334.7c1-1.4,1.7-2.9,1.9-4.6c0.2-2.1-0.3-4.2-1.5-6.1c-1.6-2.5-3.8-3.9-6.6-4.2c-2.5-0.3-5.5,0.7-9,2.9
		l-4.5,2.9c-0.4,0.2-0.5,0.8-0.3,1.2l16.2,24.9c0.1,0.2,0.3,0.3,0.6,0.4c0,0,0.1,0,0.1,0c0.2,0,0.3-0.1,0.5-0.1l3.8-2.5
		c0.4-0.3,0.5-0.8,0.2-1.2l-5.8-9l12.7,5.1c0.3,0.1,0.5,0.1,0.8-0.1l4.7-3c0.3-0.2,0.4-0.5,0.4-0.8c0-0.3-0.3-0.6-0.5-0.7
		L289.5,334.7z M282.1,333.8l-0.5,0.3l-4.2-6.5l0.6-0.4c3-2,5.2-2,6.6,0.2C285.6,328.8,286.3,331,282.1,333.8z"/>
	<path d="M292.5,91.2c0.2,0.1,0.4,0.2,0.7,0.2c0,0,0.1,0,0.2,0c0.3,0,0.6-0.2,0.7-0.5l2.8-3.7c0.4-0.5,0.3-1.2-0.2-1.6
		l-9.5-7.1l5.1-6.9l9.2,6.8c0.2,0.2,0.6,0.3,0.8,0.2c0.3,0,0.6-0.2,0.7-0.4l2.8-3.7c0.4-0.5,0.3-1.2-0.2-1.6l-9.2-6.8l3.2-4.4
		l9.5,7.1c0.2,0.2,0.5,0.3,0.8,0.2c0.3-0.1,0.6-0.2,0.7-0.5l2.7-3.7c0.4-0.5,0.3-1.2-0.2-1.6l-14.3-10.6c-0.2-0.2-0.5-0.2-0.8-0.2
		c-0.3,0-0.6,0.2-0.7,0.5l-19.3,26c-0.4,0.5-0.3,1.2,0.2,1.6L292.5,91.2z"/>
	<path d="M249.2,66.6c1.9,0.7,3.9,1.1,5.7,1.1c2.6,0,5.1-0.6,7.5-2c1.9-1,3.4-2.3,4.6-3.8c1.2-1.6,2.3-3.6,3.1-6l0.4-1
		c0.1-0.4-0.1-0.9-0.5-1.1l-12.6-4.6c-0.2-0.1-0.4-0.1-0.7,0c-0.2,0.1-0.3,0.3-0.4,0.5l-1.6,4.3c-0.2,0.4,0.1,0.9,0.5,1.1l6.7,2.4
		c-0.9,1.4-2.3,2.5-4.1,3.1c-2.2,0.8-4.3,0.8-6.4,0.1c-2.4-0.9-4.4-2.7-5.8-5.4c-1.5-2.9-1.7-5.8-0.5-9c1.1-3.1,3-5.2,5.8-6.5
		c2.8-1.3,5.7-1.4,8.7-0.3c3.4,1.2,5.6,3.7,6.8,7.8c0.1,0.2,0.2,0.4,0.5,0.5c0.2,0.1,0.5,0.1,0.7,0l4.4-1.9c0.4-0.2,0.6-0.7,0.5-1.1
		c-1.1-3-2.6-5.4-4.3-7.1c-1.8-1.8-3.9-3.2-6.4-4.1c-4.6-1.7-9.2-1.5-13.6,0.6c-4.4,2-7.5,5.4-9.2,10c-1.6,4.5-1.5,9,0.6,13.4
		C241.5,62,244.7,65,249.2,66.6z"/>
	<path d="M250.3,339.7c-3.9-2.1-8-2.5-12.3-1.3c-4.3,1.2-7.6,3.8-9.8,7.7c-2.2,3.9-2.7,7.9-1.5,12.1
		c1.4,4.7,4.2,8.1,8.4,10c2.3,1.1,4.7,1.6,7.1,1.6c1.5,0,3-0.2,4.5-0.7c4.3-1.2,7.7-3.8,9.9-7.7c2.2-3.9,2.7-7.9,1.5-12.2
		C256.8,345.1,254.2,341.9,250.3,339.7z M251.7,358.9c-1.4,2.6-3.6,4.2-6.4,5.1c-1,0.3-1.9,0.4-2.9,0.4c-1.7,0-3.3-0.4-5-1.3
		c-2.6-1.4-4.3-3.5-5.2-6.5c-0.8-2.8-0.5-5.5,0.9-8c1.4-2.5,3.5-4.2,6.4-5c1.1-0.3,2.1-0.5,3.1-0.5c1.7,0,3.3,0.4,4.9,1.3
		c2.5,1.4,4.2,3.6,5,6.4C253.4,353.7,253.1,356.4,251.7,358.9z"/>
	<path d="M238.8,348.4c-0.6-0.3-1.2-0.4-1.9-0.2c-0.6,0.2-1.1,0.6-1.5,1.2c-0.3,0.6-0.4,1.2-0.2,1.9
		c0.2,0.6,0.6,1.2,1.2,1.5c0.6,0.3,1.2,0.4,1.9,0.2c0.7-0.2,1.2-0.6,1.5-1.2c0.3-0.6,0.4-1.2,0.2-1.9
		C239.8,349.2,239.4,348.7,238.8,348.4z"/>
	<path d="M246.4,346.2c-0.6-0.3-1.2-0.4-1.9-0.2c-0.7,0.2-1.2,0.6-1.5,1.2c-0.3,0.6-0.4,1.2-0.2,1.9
		c0.2,0.7,0.6,1.2,1.2,1.5c0.6,0.3,1.2,0.4,1.9,0.2c0.7-0.2,1.2-0.6,1.5-1.2c0.3-0.6,0.4-1.2,0.2-1.9
		C247.5,347,247.1,346.5,246.4,346.2z"/>
	<path d="M343.2,188.7c0,0.3,0.2,0.6,0.4,0.8c0.2,0.1,0.4,0.2,0.7,0.2c0.1,0,0.1,0,0.2,0l29.4-4.2
		c0.6-0.1,1.1-0.7,1-1.3l-0.9-6.2c-0.5-3.2-1.1-5.5-1.9-7.2c-0.9-1.8-2.2-3.5-3.9-5c-3.5-3-7.7-4.2-12.6-3.5
		c-4.8,0.7-8.5,2.9-11.1,6.7c-1.2,1.8-2,3.8-2.4,5.9c-0.4,2-0.3,4.4,0.1,7.6L343.2,188.7z M350,173c1.5-2.2,3.7-3.5,6.6-3.9
		c0.6-0.1,1.1-0.1,1.6-0.1c2.2,0,4.1,0.7,5.7,2.1c1,0.8,1.8,1.8,2.3,2.9c0.6,1.2,1,2.7,1.2,4.6l0.1,0.9l-18.8,2.7l-0.1-0.9
		C348.3,177.7,348.7,174.9,350,173z"/>
	<path d="M324,301.3c-1.4-0.2-2.7,0-4,0.5c-0.3-1.9-1.1-3.5-2.6-4.8c-0.9-0.9-2.1-1.5-3.4-1.9c-1.3-0.4-2.5-0.6-3.8-0.5
		c-1.2,0.1-2.4,0.6-3.6,1.4c-1.1,0.7-2.3,1.8-3.7,3.4l-3,3.4c-0.3,0.3-0.3,0.9,0.1,1.2l22,19.9c0.2,0.1,0.4,0.2,0.6,0.2h0.1
		c0.2,0,0.4-0.1,0.6-0.3l4.6-5.1c1.4-1.6,2.5-3,3.2-4.4c0.6-1.3,0.9-2.8,0.8-4.3c-0.1-2.5-1.1-4.7-3-6.4
		C327.4,302.3,325.8,301.5,324,301.3z M313.4,306.8l-0.4,0.4l-5.1-4.6l0.5-0.6c0.9-1,1.8-1.5,2.6-1.6c0.8-0.1,1.7,0.3,2.5,1
		c0.9,0.8,1.3,1.6,1.3,2.5C314.9,304.8,314.4,305.7,313.4,306.8z M323.8,314.3l-1.3,1.5l-5.4-4.9l1-1.1c1.5-1.7,2.8-2.6,3.9-2.7
		c1-0.1,1.9,0.1,2.7,0.8c0.8,0.7,1.2,1.6,1.1,2.7C325.7,311.7,325,313,323.8,314.3z"/>
	<path d="M345.5,141.9c1.2,0.5,2.4,0.5,3.6,0c1.2-0.5,2.1-1.3,2.5-2.5c0.5-1.2,0.5-2.4,0-3.5c-0.5-1.2-1.4-2-2.6-2.5
		c-1.2-0.5-2.4-0.5-3.6,0c-1.2,0.5-2,1.3-2.5,2.4c-0.5,1.2-0.5,2.4,0,3.6C343.5,140.5,344.3,141.4,345.5,141.9z"/>
	<path d="M311,94.9c-2.2,2.4-3.4,5.1-3.6,7.8c-0.1,2.7,0.8,5.4,2.7,7.8c2.1,2.5,4.7,4,7.7,4.3c0.4,0,0.8,0.1,1.2,0.1
		c2.6,0,5-0.9,7.2-2.7c1.9-1.6,3.1-3.4,3.6-5.6c0.4-2.1,0.2-4.6-0.7-7.5l-1-3.3c-0.6-1.9-0.5-3.3,0.3-3.9c0.6-0.5,1.3-0.7,2.1-0.5
		c0.9,0.2,1.7,0.7,2.4,1.5c0.5,0.7,0.9,1.3,0.9,2c0.1,0.3,0.1,1.1-0.6,2.7c-0.1,0.3-0.1,0.6,0,0.9c0.1,0.3,0.4,0.5,0.6,0.6l4.3,1.6
		c0.6,0.2,1.2-0.1,1.5-0.7c1.6-4.3,1.1-8.1-1.5-11.3c-1.9-2.4-4.3-3.8-7-4.2c-2.8-0.4-5.3,0.2-7.4,1.9c-3.2,2.6-4,6.5-2.5,11.5
		l1,3.2c0.2,0.8,0.4,1.5,0.4,2.1c0.1,0.6,0.1,1.1,0,1.6c-0.1,0.4-0.2,0.8-0.4,1.1c-0.2,0.4-0.5,0.7-0.9,1c-1,0.8-2,1.1-3.1,1
		c-1.1-0.1-2.1-0.6-2.8-1.6c-1-1.2-1.3-2.4-0.9-3.8c0.1-0.4,0.5-1.3,2-2.9c0.2-0.2,0.3-0.5,0.3-0.9c0-0.3-0.2-0.6-0.4-0.8l-4-3.1
		C312.1,94.4,311.4,94.5,311,94.9z"/>
	<path d="M376.8,213.5c-0.1-0.5-0.5-0.8-0.9-0.9l-31.1-5.1c-0.3,0-0.6,0-0.8,0.2c-0.2,0.2-0.4,0.4-0.4,0.7l-0.7,4.4
		c-0.1,0.6,0.3,1.2,0.9,1.3l17.6,2.9l-23.6,16.5c-0.4,0.3-0.6,0.7-0.5,1.2c0.1,0.5,0.5,0.8,0.9,0.9l31.3,5.1c0.1,0,0.1,0,0.2,0
		c0.2,0,0.5-0.1,0.7-0.2c0.2-0.2,0.4-0.4,0.4-0.7l0.7-4.4c0.1-0.6-0.3-1.2-0.9-1.3l-17.8-2.9l23.6-16.5
		C376.7,214.4,376.9,214,376.8,213.5z"/>
	<path d="M351.4,261.6l-17.1-8.6c-0.3-0.1-0.6-0.2-0.9-0.1c-0.3,0.1-0.5,0.3-0.7,0.6l-2,4c-0.3,0.6-0.1,1.2,0.5,1.5
		l16,8c2.1,1,3.4,2.1,3.9,3.1c0.8,1.6,0.8,3.2-0.1,4.9c-0.9,1.7-2.1,2.7-3.8,3c-1.2,0.2-2.8-0.2-4.9-1.2l-16-8
		c-0.3-0.1-0.6-0.2-0.9-0.1c-0.3,0.1-0.5,0.3-0.7,0.5l-2,4.1c-0.3,0.6-0.1,1.2,0.5,1.5l17.1,8.6c1.9,1,3.8,1.4,5.7,1.4
		c1.1,0,2.3-0.2,3.4-0.5c3.3-1.1,5.8-3.2,7.3-6.4c1.6-3.1,1.8-6.4,0.7-9.7C356.5,265.4,354.5,263.1,351.4,261.6z"/>
	<path d="M174.4,59.2c0.2,0.2,0.5,0.3,0.7,0.3c0.1,0,0.1,0,0.1,0l4.8-0.6c0.6-0.1,1.1-0.6,1-1.2l-1.2-10.9l9.3,10.6
		c0.2,0.3,0.6,0.4,1,0.4l6-0.6c0.4-0.1,0.8-0.3,0.9-0.7c0.2-0.4,0.1-0.8-0.2-1.2l-10.4-11.4c1.6-0.8,2.9-2,3.9-3.6
		c1.2-2,1.8-4.3,1.5-6.8c-0.4-3.2-1.9-5.8-4.4-7.5c-2.3-1.5-5.7-2.1-10.2-1.6l-5.7,0.6c-0.6,0.1-1.1,0.6-1,1.2l3.6,32.2
		C174,58.7,174.1,59,174.4,59.2z M178.7,31.1c0.6-0.1,1.1-0.1,1.5-0.1c3.7,0,4.3,1.8,4.5,3.3c0.2,1.9-0.2,4.2-5.3,4.8l-0.4,0l-0.9-8
		L178.7,31.1z"/>
	<path d="M62.9,102.3c3.1,2.5,7.2,2.6,11.8,0.1l3-1.6c0.7-0.4,1.4-0.7,2-0.9c0.6-0.2,1.1-0.3,1.6-0.3
		c0.4,0,0.8,0.1,1.2,0.2c0.4,0.1,0.8,0.4,1.2,0.7c1,0.8,1.5,1.7,1.7,2.9c0.1,1.1-0.2,2.1-1,3.1c-0.9,1.1-2,1.7-3.2,1.7
		c-0.1,0-0.2,0-0.3,0c-0.4,0-1.3-0.2-3.2-1.4c-0.3-0.2-0.6-0.2-0.9-0.1c-0.3,0.1-0.6,0.3-0.7,0.6l-2.3,4.6c-0.3,0.5-0.1,1.2,0.4,1.5
		c2.3,1.4,4.6,2,6.8,2c0.5,0,1,0,1.5-0.1c2.7-0.4,5.1-1.8,7-4.3c2-2.5,2.9-5.4,2.6-8.5c-0.3-3.1-1.7-5.7-4.3-7.7
		c-1.9-1.6-4-2.4-6.3-2.4c-2.1,0-4.5,0.7-7.1,2.2l-3,1.7c-1.8,0.9-3,1.1-3.9,0.4c-0.6-0.5-0.9-1.1-1-2c0-0.9,0.3-1.8,1-2.6
		c0.6-0.7,1.1-1.1,1.7-1.3c0.2-0.1,0.5-0.2,1.1-0.2c0.5,0,1,0.1,1.6,0.1c0.3,0.1,0.6,0,0.9-0.2c0.2-0.2,0.4-0.5,0.4-0.8l0.7-4.6
		c0.1-0.6-0.3-1.2-1-1.3c-4.5-0.7-8.2,0.6-10.8,3.8c-1.9,2.4-2.8,5-2.7,7.7C59.6,98.3,60.7,100.6,62.9,102.3z"/>
	<path d="M116.4,86.8c0.2,0.1,0.4,0.2,0.6,0.2c0,0,0,0,0,0c0.6,0,1.1-0.5,1.1-1.1c0-0.2,0-0.3-0.1-0.5l-8.6-36.5
		c-0.1-0.4-0.3-0.7-0.7-0.8s-0.7-0.1-1.1,0.1l-4.3,3.1c-0.4,0.3-0.6,0.7-0.4,1.2l5.2,20.8l-18-11.4c-0.4-0.3-0.9-0.2-1.3,0l-4.3,3.1
		c-0.3,0.2-0.5,0.6-0.5,1c0,0.4,0.2,0.7,0.5,0.9L116.4,86.8z"/>
	<path d="M140.7,69.8c0.2,0.1,0.3,0.1,0.5,0.1c0.1,0,0.3,0,0.4-0.1l16.6-6.3c0.6-0.2,0.9-0.9,0.7-1.5l-1.7-4.3
		c-0.1-0.3-0.3-0.5-0.6-0.6c-0.3-0.1-0.6-0.1-0.9,0l-11.1,4.2l-3-7.9l10.7-4.1c0.6-0.2,0.9-0.9,0.7-1.5l-1.7-4.3
		c-0.1-0.3-0.3-0.5-0.6-0.6c-0.3-0.1-0.6-0.1-0.9,0l-10.7,4.1l-1.9-5.1l11.1-4.2c0.6-0.2,0.9-0.9,0.7-1.5l-1.7-4.3
		c-0.1-0.3-0.3-0.5-0.6-0.6c-0.3-0.1-0.6-0.1-0.9,0l-16.6,6.3c-0.6,0.2-0.9,0.9-0.7,1.4l11.5,30.3C140.3,69.4,140.5,69.6,140.7,69.8
		z"/>
	<path d="M219.2,79.8l101,101C311.9,129,271.1,88.1,219.2,79.8z"/>
	<path d="M319.9,221.1l-98.9,98.8C271.4,311.1,311.1,271.4,319.9,221.1z"/>
	<path d="M80.2,178.1l97.9-97.9C128.4,89.2,89.2,128.4,80.2,178.1z"/>
	<path d="M333,208c0.2-2.7,0.4-5.3,0.4-8c0-2.1-0.2-4.2-0.3-6.3c-1.5-32.7-14.7-63.4-37.7-87
		c-23.8-24.3-55.3-38.3-89.1-39.9c-1,0-2.1-0.2-3.1-0.2c-3.6-0.1-7.2,0-10.8,0.2c-0.3,0-0.6,0.1-1,0.1c-67.1,4.3-120,58-124.3,124.3
		l-0.4,8.7c0,2.4,0.2,4.7,0.4,7c3.6,68,58.1,122.5,126.1,126c2.3,0.1,4.6,0.4,7,0.4l8-0.4C275.2,329,329,275.2,333,208z M203.1,70
		c2.3,0.1,4.6,0.3,6.8,0.5c63.5,4.9,114.6,56.3,119.5,119.5c0.2,2.8,0.5,5.7,0.5,8.6l-8.6-8.6L210,78.7l-8.7-8.7
		C201.9,70,202.5,70,203.1,70z M70.9,187.4C76.8,126,125.5,76.7,187.6,70.8c1.7-0.2,3.3-0.4,5-0.5c1.3-0.1,2.7-0.1,4.1-0.1l-8.7,8.7
		L78.8,187.9l-8.6,8.6C70.3,193.5,70.6,190.4,70.9,187.4z M189.3,329.3c-63.1-5.2-113.4-55.5-118.6-118.6c-0.2-2.8-0.5-5.7-0.6-8.6
		l8.6,8.6l110.5,110.5l8.6,8.6C195,329.8,192.1,329.5,189.3,329.3z M194.4,321.5L78.5,205.7l-6.3-6.3l6.4-6.4L193,78.5l6-6l5.9,5.9
		l116.7,116.6l5.6,5.6l-5.6,5.6L206.3,321.5l-6,6L194.4,321.5z M211.8,329.2c-3,0.3-6,0.6-9,0.6l8.6-8.6l109.9-109.9l8.6-8.6
		c-0.1,3-0.4,6-0.6,9C323.6,274,274,323.6,211.8,329.2z"/>
	<path d="M180,320L79.9,220C88.4,271.2,128.8,311.6,180,320z"/>
	<path d="M200,10.2C95.3,10.2,10.2,95.3,10.2,200c0,104.7,85.2,189.8,189.8,189.8c104.7,0,189.9-85.2,189.9-189.8
		C389.9,95.3,304.7,10.2,200,10.2z M200,386.5C97.2,386.5,13.6,302.8,13.6,200C13.6,97.2,97.2,13.5,200,13.5
		c102.8,0,186.4,83.6,186.4,186.5C386.5,302.8,302.8,386.5,200,386.5z"/>
		<path d="M80.2,178.1l97.9-97.9C128.4,89.2,89.2,128.4,80.2,178.1z"/>
	<path d="M187.5,70.7l3.8-3.8c-67.1,4.3-120,58-124.3,124.3l3.8-3.8C76.8,126,125.5,76.7,187.5,70.7z"/>
	<path d="M70.7,210.7l-3.7-3.7C70.5,275,125,329.5,193,333l-3.7-3.7C126.2,324.1,75.9,273.8,70.7,210.7z"/>
	<path d="M329.2,211.8C323.6,274,274,323.6,211.8,329.2L208,333c67.2-4,121-57.8,125-125L329.2,211.8z"/>
	<path d="M329.4,190.1l3.7,3.7c-1.5-32.7-14.7-63.5-37.7-87c-23.8-24.3-55.3-38.3-89.1-39.9l3.7,3.7
		C273.4,75.4,324.5,126.8,329.4,190.1z"/>
	<path d="M219.2,79.8l101,101C311.9,128.9,271,88.1,219.2,79.8z"/>
	<path d="M180,320L79.9,220C88.4,271.2,128.8,311.6,180,320z"/>
	<path d="M200,10.1C95.3,10.1,10.1,95.3,10.1,200c0,104.7,85.2,189.8,189.8,189.8c104.7,0,189.9-85.1,189.9-189.8
		C389.9,95.3,304.7,10.1,200,10.1z M200,386.4C97.2,386.4,13.5,302.8,13.5,200C13.5,97.2,97.2,13.5,200,13.5
		c102.8,0,186.4,83.6,186.4,186.5C386.4,302.8,302.8,386.4,200,386.4z"/>
	<path d="M319.9,221l-98.9,98.8C271.4,311.1,311.1,271.4,319.9,221z"/>
	<path d="M258.6,241.4c0,0,6.7-19.4,8.3-41.3c1.1-15.7-1.7-32.9-8.8-44.7c-8.2-13.7-17.9-23.9-28.5-31.4
		c-12.9-9.1-28.5-13.5-50.8-11.3c0,0,5.8,8.3,7.5,8.5c1,0.1,3.9-7.5,4.9-7.7c1-0.2,2.4,9,3.6,9.5c1.2,0.5,6.6-8,7.6-7.6
		c1,0.5,0.6,9.7,1.7,10.1c1.2,0.4,10.7-6.4,11.4-5.9c0.7,0.5-0.1,11.9,0.7,12.2c0.8,0.2,12-3.9,12.7-3.4c0.7,0.5-2.2,12.5-1.5,13.1
		c0.8,0.6,12.2-3.1,13.2-2.3c1,0.7-4.4,12.3-3.9,12.9c0.5,0.5,14.1-1.2,14.4-0.2c0.2,1-7.6,11.7-7.3,12.4c0.2,0.7,15.4,1.5,15.6,2.4
		c0.3,1-10.3,10.9-10.3,11.8c0.1,0.9,11.3,8,11.3,8.7c0,0.7-10.7,6.7-10.6,7.5c0.1,0.8,12.3,8.6,12.3,9.5c0,1-12.2,6.8-12.2,7.8
		c0,1,10.2,8.3,10.2,9.3c0,1-12.7,5.6-12.5,6.1c0.1,0.5,7.4,6.6,7.4,7.8c0,1.2-11.9,6.3-11.9,6.3H258.6z"/>
	<path d="M260.4,265.2c0.7-2.9-6.8-15.5-6.9-17.6H147.3c-0.1,2.1-5.9,14.7-5.3,17.6H260.4z"/>
	<path d="M127.1,205.6c-0.5,0.2-0.6,0.5,0,2c0.6,1.5,1.6,2.9,2.1,2c0.5-0.9,0.4-2.8,0-3.3
		C128.7,205.8,127.1,205.6,127.1,205.6z"/>
	<path d="M239.1,166c-13.5-23-33-37.4-54.9-40.5c-0.2,0-0.5-0.1-0.6-0.3c-3.1-3-12-10.8-15.7-10.8
		c-0.5,0-0.7,0.1-0.8,0.3c-0.7,1.1,0.4,9.6,2.6,11.8c0.4,0.4,0.4,1.1,0.1,1.6c-0.1,0.1-13.3,14.7-16.3,21.6
		c-3.3,7.5-11.6,21.6-16.1,26.7c-2.8,3.2-4.6,5.8-6.6,8.5c-1.1,1.6-2.3,3.3-3.6,5c-3.6,4.7-7.5,18.8-5,23.9c1.5,3,3,4.1,4.1,4.9
		c0.8,0.6,1.8,1.3,1.6,2.7c0,0.1,0,0.3,0.2,0.5c0.4,0.5,1.4,1,2.4,1c0.4,0,0.7-0.1,1-0.2c1.1-0.5,3.9-4.7,5.8-7.4
		c1.9-2.8,3.1-4.6,3.9-5.2c0.1-0.1,0.2-0.2,0.3-0.3l2.3-3.4c0.3-0.5,1-0.7,1.5-0.4c0.5,0.3,0.7,0.9,0.5,1.4c-0.1,0.1-1,2.2-2.5,3.8
		c-2.9,4.3-6.5,9.7-7.2,10.7c-0.3,0.4-0.6,0.8-0.8,1c0.2,0.1,0.5,0.2,0.9,0.4c0.6,0.2,1.4,0.3,2.4,0.3c3.2,0,7.4-1.2,8.6-2.4
		c0.7-0.7,2.7-3.5,4.5-6.2c3.9-5.6,6.6-9.4,8-10.3c0.9-0.5,2.2-0.9,4-1.3c3.7-0.9,8.6-2.2,12.9-6c0.6-0.5,1.2-1.1,1.9-1.9
		c1-1.3,2.2-2.7,3.4-4.1l1.2-1.4c4.3-5.6,8.2-11.8,9.3-13.6c0.6-1,1.1-1.8,1.3-2.2c0.2-0.4,0.5-0.8,1.1-0.8c0.4,0,0.8,0.2,1,0.5
		c0.2,0.3,0.2,0.8,0.1,1.1c-0.2,0.4-0.8,1.3-1.5,2.5c-1.5,2.5-3.8,6.2-6.6,10.2c-0.8,1.2-2,2.5-2.9,3.7c-1.7,2.2-3.2,4-4.6,5.5
		c-0.8,1.1-1.4,2-1.9,2.7c-2.2,3.9-4.4,7.3-6,9.8c-0.9,1.4-1.7,2.6-1.9,3.1c-1.3,2.6-5.1,6.1-8.8,9.5c-2.2,2-4.3,3.9-5.4,5.3
		l-0.7,0.8c-3.4,4.2-6.3,7.8-6.8,12h89C239.6,233.1,250.4,185.2,239.1,166z M133.8,205.6c0,3.5-1.9,6.8-3.5,6.9
		c-1.1,0.1-2.2,0.4-4-2.9c-1.8-3.2-2.5-5.2-1.5-9.3c1.1-4.1,6.1-4.6,6.1-4.6s1.9,0,2.5,2.4C133.9,200.1,133.9,202.1,133.8,205.6z
		 M163.8,165.3c-2.5,0.4-10-4.7-10-4.7s5.2-4,11.5-4c6.2,0,7.4,2.8,7.8,4.4C173.5,162.7,166.4,164.9,163.8,165.3z"/>
</g>
</svg>
