<?xml version="1.0" encoding="utf-8"?>
<svg version="1.1" id="Layer_1" xmlns="http://www.w3.org/2000/svg" xmlns:xlink="http://www.w3.org/1999/xlink" x="0px" y="0px"
	 viewBox="0 0 400 400" style="enable-background:new 0 0 400 400;" xml:space="preserve">
<rect fill="#E5F7FA" width="400" height="400"/>
<g fill="#002C50">
	<path  d="M87.7,174.3H65.2c-8.1,0-9.1-4-9.1-7.2c0-6.4,3.3-9,11.5-9h43.6v-17.6H65.1c-20.5,0-30,8.4-30,26.4
		c0,17,9,24.8,28.6,24.8h20.1c7.8,0,10.4,1.8,10.4,7.7c0,4.8-1.8,7.4-11.6,7.4H38.5v17.6h46.9c20.4,0,29.9-8.2,29.9-25.9
		c0-17.4-8-24.4-27.4-24.4L87.7,174.3z"/>
	<polygon points="183.5,140.5 159.8,198.1 136.5,140.5 113.7,140.5 150.4,224.6 170.1,224.6 205.2,140.5 	"/>
	<path d="M240.3,157.7h29.5v-17.4h-29.9c-27,0-39.7,13.8-39.7,43.5c0,15.3,4.3,26.1,13.1,33.2c8.6,6.9,17,7.4,26.2,7.4
		h30.3v-17.4h-29.5c-12.3,0-17.1-4.6-17.6-16.6h47.1v-17.4h-47c1-10.6,6.7-15.5,17.4-15.5L240.3,157.7z"/>
	<path d="M308.9,187.6l9.5-24.9l9.9,24.9H308.9z M309,140.5l-35.6,84.1h21.5l7.2-19.3H335l7.4,19.3h22.5L329,140.5
		h-20.1H309z"/>
</g>
<path fill="#00AECE" d="M361,262.4H41.7c-2.2,0-4-1.8-4-4v-13.8c0-2.2,1.8-4,4-4H361c2.2,0,4,1.8,4,4v13.8
	C365,260.6,363.2,262.4,361,262.4z"/>
</svg>
