<svg xmlns="http://www.w3.org/2000/svg" viewBox="0 0 400 400">
    <path fill="#E5F7FA" d="M0 0h400v400H0z"/>
    <path d="M87.7 174.3H65.2c-8.1 0-9.1-4-9.1-7.2 0-6.4 3.3-9 11.5-9h43.6v-17.6H65.1c-20.5 0-30 8.4-30 26.4 0 17 9 24.8 28.6 24.8h20.1c7.8 0 10.4 1.8 10.4 7.7 0 4.8-1.8 7.4-11.6 7.4H38.5v17.6h46.9c20.4 0 29.9-8.2 29.9-25.9 0-17.4-8-24.4-27.4-24.4l-.2.2zm95.8-33.8l-23.7 57.6-23.3-57.6h-22.8l36.7 84.1h19.7l35.1-84.1zm56.8 17.2h29.5v-17.4h-29.9c-27 0-39.7 13.8-39.7 43.5 0 15.3 4.3 26.1 13.1 33.2 8.6 6.9 17 7.4 26.2 7.4h30.3V207h-29.5c-12.3 0-17.1-4.6-17.6-16.6h47.1V173h-47c1-10.6 6.7-15.5 17.4-15.5l.1.2zm68.6 29.9l9.5-24.9 9.9 24.9h-19.4zm.1-47.1l-35.6 84.1h21.5l7.2-19.3H335l7.4 19.3h22.5L329 140.5h-20.1.1z" fill="#002C50"/>
    <path fill="#00AECE" d="M361 262.4H41.7c-2.2 0-4-1.8-4-4v-13.8c0-2.2 1.8-4 4-4H361c2.2 0 4 1.8 4 4v13.8c0 2.2-1.8 4-4 4z"/>
</svg>
