<svg viewBox="0 0 1024 1024" fill="#00FFAB" xmlns="http://www.w3.org/2000/svg">
    <rect width="1024" height="1024" fill="#13322B"/>
    <path d="M193.791 506.883c-2.874 0-5.21 2.289-5.21 5.097v71.35c0 4.427-3.438 7.769-8.001 7.769-4.562 0-8.001-3.485-8.001-7.769V458.362c0-2.815-2.336-5.097-5.209-5.097h-37.95c-4.413 0-8.001-3.587-8.001-8.001s3.438-7.769 8.001-7.769c2.874 0 5.209-2.289 5.209-5.098 0-2.808-2.335-5.097-5.209-5.097-10.33-.014-18.42 7.885-18.42 17.957 0 10.072 8.26 18.203 18.42 18.203h32.747v119.87c0 9.907 8.26 17.97 18.42 17.97 10.16 0 18.413-7.892 18.413-17.97v-71.35c0-2.815-2.336-5.097-5.209-5.097z"/>
    <path d="M232.443 427.3h-80.199c-2.893 0-5.244 2.274-5.244 5.065 0 2.79 2.351 5.064 5.244 5.064h80.206c4.442 0 8.055 3.462 8.055 7.719s-3.764 7.95-8.055 7.95h-38.451c-2.893 0-5.244 2.274-5.244 5.065v31.073c0 2.797 2.351 5.064 5.244 5.064s5.244-2.274 5.244-5.064v-25.995h33.214c10.049 0 18.543-8.283 18.543-18.086 0-9.803-8.315-17.855-18.543-17.855h-.014zm76.096 62.122a5.157 5.157 0 0 0-3.036-2.637c-2.727-.92-5.722.477-6.677 3.128A64.31 64.31 0 0 0 295 511.8c0 16.804 6.526 32.879 17.901 44.095 11.506 11.87 26.803 18.405 43.083 18.405 16.28 0 30.602-6.528 42.081-18.371C409.467 544.413 416 528.331 416 511.8s-6.526-32.565-17.901-44.32c-11.355-11.72-26.316-18.18-42.115-18.18-16.664 0-31.55 6.269-43.042 18.133a60.529 60.529 0 0 0-2.205 2.351 4.97 4.97 0 0 0-1.257 3.7 5.003 5.003 0 0 0 1.834 3.489c2.198 1.812 5.509 1.56 7.385-.559a52.984 52.984 0 0 1 1.861-1.983c9.486-9.792 21.741-14.964 35.424-14.964 12.866 0 25.1 5.315 34.449 14.964 9.569 9.887 15.057 23.509 15.057 37.362 0 13.854-5.488 27.462-15.057 37.131-9.5 9.799-21.734 15.196-34.456 15.196-13.539 0-25.814-5.281-35.506-15.278-9.514-9.383-14.975-22.889-14.975-37.049a54.464 54.464 0 0 1 3.235-18.528 4.869 4.869 0 0 0-.206-3.836l.014-.007z"/>
    <path d="M355.984 422.3c-23.783 0-46.652 9.725-62.741 26.685C276.962 465.869 268 488.174 268 511.8c0 23.626 8.969 46.191 25.243 62.815 16.335 16.96 39.204 26.685 62.741 26.685 23.538 0 45.718-9.972 61.262-26.658a101.63 101.63 0 0 0 1.664-1.745 5.004 5.004 0 0 0 1.35-3.689 5.043 5.043 0 0 0-1.718-3.545c-2.128-1.875-5.429-1.711-7.346.363-.484.52-.975 1.033-1.562 1.635-13.661 14.667-33.72 23.421-53.65 23.421-19.929 0-40.786-8.569-55.184-23.51-14.426-14.735-22.371-34.542-22.371-55.772 0-21.23 7.959-40.832 22.425-55.827 14.132-14.9 34.225-23.448 55.123-23.448 20.898 0 40.214 8.774 53.712 23.482 14.752 15.303 22.876 35.117 22.876 55.8 0 11.731-2.503 23.037-7.448 33.597a4.978 4.978 0 0 0-.157 3.881 5.107 5.107 0 0 0 2.742 2.902c2.605 1.157 5.702.027 6.895-2.526 5.572-11.908 8.403-24.645 8.403-37.854 0-23.297-9.112-45.582-25.638-62.719-15.387-16.782-38.331-26.788-61.378-26.788zm216.813 79.901a48.575 48.575 0 0 0 7.125-25.354c0-27.321-22.712-49.547-50.624-49.547h-33.959c-10.108 0-18.339 8.06-18.339 17.964v90.473c0 2.814 2.325 5.096 5.186 5.096 2.861 0 5.187-2.288 5.187-5.096v-90.473c0-4.283 3.573-7.766 7.966-7.766h33.959c22.197 0 40.258 17.649 40.258 39.349 0 8.579-2.78 16.734-8.041 23.598a5.04 5.04 0 0 0-.956 3.996 5.13 5.13 0 0 0 2.333 3.388 46.848 46.848 0 0 1 13.159 12.158c5.613 7.657 8.576 16.604 8.576 25.873 0 5.041-.834 9.979-2.474 14.685a4.955 4.955 0 0 0 .23 3.859 5.105 5.105 0 0 0 3.01 2.623 5.386 5.386 0 0 0 1.668.273c2.21 0 4.183-1.387 4.902-3.442A54.497 54.497 0 0 0 595 545.867c0-11.421-3.647-22.431-10.536-31.836a56.922 56.922 0 0 0-11.661-11.823l-.006-.007zm9.151 69.825c-2.259-1.693-5.489-1.253-7.208.992-8.739 11.442-22.023 18.01-36.446 18.01h-40.789c-.95-.289-2.056-.303-3.081-.048-3.931-.427-7.107-3.883-7.107-7.787v-28.757c0-2.837-2.313-5.136-5.159-5.136-2.845 0-5.158 2.306-5.158 5.136v28.757c0 9.983 8.179 18.107 18.24 18.107.162 0 .317-.007.479-.021.155.014.31.021.472.021h42.103c17.667 0 33.944-8.041 44.652-22.065a5.045 5.045 0 0 0 1.005-3.794 5.086 5.086 0 0 0-2.01-3.422l.007.007z"/>
    <path d="M508.204 480.366c-2.871 0-5.204 2.258-5.204 5.029v9.876c0 2.777 2.333 5.029 5.204 5.029h20.64c13.319 0 24.156-10.644 24.156-23.729 0-13.085-10.612-23.271-24.156-23.271h-20.64c-2.871 0-5.204 2.258-5.204 5.029v9.316c0 2.778 2.333 5.029 5.204 5.029 2.871 0 5.204-2.258 5.204-5.029v-4.287h15.436c7.714 0 13.755 5.804 13.755 13.213 0 7.408-6.17 13.671-13.755 13.671h-15.436v-4.84c0-2.778-2.333-5.029-5.204-5.029v-.007zM503 570.172c0 2.832 2.329 5.128 5.194 5.128h30.032c16.697-.289 29.774-13.301 29.774-29.613 0-16.313-13.111-29.091-29.862-29.38h-4.841c-2.866 0-5.195 2.303-5.195 5.128s2.329 5.128 5.195 5.128h4.746c10.972.186 19.568 8.586 19.568 19.117s-8.562 19.165-19.48 19.35h-24.749v-38.474h4.434c2.865 0 5.194-2.303 5.194-5.128s-2.329-5.128-5.194-5.128h-9.622c-2.865 0-5.194 2.303-5.194 5.128v48.744zm178.918 20.946h-32.19a5.016 5.016 0 0 0-2.803-.068c-3.866-.512-6.762-3.795-6.762-7.692v-91.967a5.088 5.088 0 0 0-5.081-5.091c-2.804 0-5.082 2.286-5.082 5.091v91.96c0 9.896 8.057 17.949 17.968 17.949.133 0 .259 0 .273-.014.139.007.285.014.431.014h33.246c2.804 0 5.082-2.286 5.082-5.091s-2.278-5.091-5.082-5.091zm43.878-163.811h-77.599c-10.205 0-18.197 7.836-18.197 17.843v28.089c0 2.795 2.307 5.061 5.146 5.061s5.147-2.273 5.147-5.061V445.15c0-4.396 3.397-7.714 7.911-7.714h77.599c4.285 0 7.904 3.535 7.904 7.714 0 4.18-3.693 7.945-7.904 7.945h-21.379c-2.839 0-5.147 2.273-5.147 5.062 0 2.788 2.308 5.061 5.147 5.061h21.379c9.862 0 18.197-8.277 18.197-18.074 0-9.797-8.16-17.844-18.197-17.844l-.007.007z"/>
    <path d="M725.731 565.146h-59.398v-32.855h50.349c10.076 0 18.268-8.164 18.268-18.2 0-10.037-8.368-17.968-18.268-17.968h-50.349v-32.63h16.249c2.85 0 5.167-2.288 5.167-5.096 0-2.808-2.317-5.097-5.167-5.097h-21.415c-2.85 0-5.167 2.289-5.167 5.097v42.822c0 2.815 2.317 5.097 5.167 5.097h55.508c4.228 0 7.942 3.634 7.942 7.768 0 4.413-3.559 8-7.942 8h-55.508c-2.85 0-5.167 2.289-5.167 5.096v43.055c0 2.815 2.317 5.097 5.167 5.097h64.564c4.228 0 7.943 3.737 7.943 8.007s-3.708 7.768-7.943 7.768h-24.144c-2.85 0-5.166 2.289-5.166 5.096 0 2.808 2.316 5.097 5.166 5.097h24.144c9.901 0 18.269-8.226 18.269-17.968 0-4.775-1.925-9.325-5.423-12.81-3.492-3.477-8.057-5.39-12.846-5.39v.014zm187.031-121.589c-.762-4.72-3.293-8.877-7.13-11.694-8.13-5.977-19.451-4.273-25.785 3.903l-15.784 21.183a5.017 5.017 0 0 0-.946 3.806 5.062 5.062 0 0 0 2.089 3.373c2.306 1.656 5.558 1.155 7.252-1.113l15.723-21.1c2.796-3.607 7.729-4.411 11.233-1.827a7.798 7.798 0 0 1 3.109 5.139c.313 2.013-.157 4.006-1.32 5.607l-49.196 66.124a5.094 5.094 0 0 0-1.007 3.036v40.18c0 2.831 2.334 5.126 5.205 5.126s5.204-2.302 5.204-5.126v-38.496l48.23-64.819v-.014c2.776-3.833 3.885-8.547 3.13-13.274l-.007-.014z"/>
    <path d="M856.632 572.297c-2.889 0-5.237 2.298-5.237 5.118v5.844c0 4.445-3.458 7.8-8.045 7.8-4.588 0-8.045-3.574-8.045-7.8v-63.431a5.056 5.056 0 0 0-1-3.011l-49.166-66.196c-1.301-1.591-1.856-3.54-1.582-5.488.288-1.996 1.417-3.779 3.191-5.021 1.862-1.303 4.074-1.818 6.217-1.454 1.985.343 3.663 1.42 4.868 3.141l41.299 54.974a5.29 5.29 0 0 0 4.218 2.085c1.657 0 3.238-.782 4.217-2.085l15.419-20.524a4.985 4.985 0 0 0 .952-3.801 5.051 5.051 0 0 0-2.102-3.368c-2.328-1.653-5.601-1.152-7.299 1.112l-11.201 14.906-36.979-49.218c-2.718-3.897-6.84-6.49-11.599-7.306-4.943-.851-9.955.295-14.124 3.217-4.122 2.888-6.772 7.127-7.463 11.922-.671 4.685.657 9.473 3.615 13.102l48.03 64.673v61.771c0 9.947 8.305 18.041 18.52 18.041s18.521-7.923 18.521-18.041v-5.844a5.03 5.03 0 0 0-1.486-3.574 5.26 5.26 0 0 0-3.745-1.544h.006z"/>
</svg>
