<svg xmlns="http://www.w3.org/2000/svg" viewBox="0 0 338 338">
    <path fill="#FFF" d="M0 0h338v338H0z"/>
    <path d="M27.51 243.93c-2.14 0-4.13-.76-5.74-2.21l-.05-.05 1.54-1.83.06.05c1.4 1.21 2.72 1.75 4.26 1.75 1.42 0 2.34-.64 2.34-1.64 0-.93-.45-1.46-3.02-2.05-2.98-.72-4.6-1.59-4.6-4.15 0-2.41 1.95-4.07 4.74-4.07 1.91 0 3.55.57 5 1.73l.06.04-1.37 1.94-.06-.05c-1.25-.94-2.45-1.39-3.66-1.39-1.28 0-2.15.62-2.15 1.54 0 .97.44 1.46 3.18 2.11 3.16.77 4.44 1.95 4.44 4.07-.02 2.58-1.96 4.21-4.97 4.21zm19.62-.1h-2.16l-5.79-13.9h2.76l4.11 10.36 4.03-10.31 2.78-.05-5.73 13.9zm23.66-.1H60.42v-13.8h10.27v2.29h-7.72v3.4h6.85v2.29h-6.85v3.52h7.82v2.3zm20.34 0h-2.08l-7.45-9.57v9.57h-2.51v-13.8h2.3l7.24 9.29v-9.29h2.51v13.8h-.01zm13.73.2c-2.14 0-4.13-.76-5.74-2.21l-.05-.05 1.54-1.83.06.05c1.4 1.21 2.72 1.75 4.26 1.75 1.42 0 2.34-.64 2.34-1.64 0-.93-.45-1.46-3.02-2.05-2.99-.72-4.6-1.59-4.6-4.15 0-2.41 1.95-4.07 4.74-4.07 1.91 0 3.55.57 5 1.73l.06.04-1.37 1.94-.06-.05c-1.25-.94-2.45-1.39-3.66-1.39-1.29 0-2.15.62-2.15 1.54 0 .97.44 1.46 3.18 2.11 3.16.77 4.44 1.95 4.44 4.07-.02 2.58-1.96 4.21-4.97 4.21zm25.48-.2h-3.06l-4.67-6.1-2.06 2.12.02 3.98h-2.55v-13.8h2.55v6.75l6.36-6.73 3.17-.02-5.8 6 6.04 7.8zm20.52 0h-2.57V232.3h-4.33v-2.37h11.23v2.37h-4.33v11.43zm23.81 0h-2.97l-3.42-4.79-2.87.03v4.76h-2.55v-13.8h6.16c1.69 0 3.07.48 3.99 1.39.75.77 1.15 1.81 1.15 3 0 2.11-1.14 3.59-3.21 4.22l3.72 5.19zm-9.26-7.03h3.43c1.66 0 2.73-.87 2.73-2.21 0-1.43-1-2.23-2.75-2.23h-3.42v4.44h.01zm30.69 7.03h-2.65l-1.45-3.34-6.39.05-1.33 3.25-2.64.05 6.05-13.85 2.29-.05 6.12 13.89zm-9.49-5.57h4.47l-2.25-5.2-2.22 5.2zm22.32 5.67h-2.16l-5.79-13.9h2.76l4.11 10.36 4.03-10.31 2.78-.05-5.73 13.9zm17.77.1c-2.14 0-4.13-.76-5.74-2.21l-.05-.05 1.54-1.83.06.05c1.4 1.21 2.72 1.75 4.26 1.75 1.42 0 2.34-.64 2.34-1.64 0-.93-.45-1.46-3.02-2.05-2.98-.72-4.6-1.59-4.6-4.15 0-2.41 1.95-4.07 4.74-4.07 1.91 0 3.55.57 5 1.73l.05.04-1.37 1.94-.06-.05c-1.25-.94-2.45-1.39-3.66-1.39-1.28 0-2.15.62-2.15 1.54 0 .97.44 1.46 3.18 2.11 3.16.77 4.45 1.95 4.45 4.07-.02 2.58-1.97 4.21-4.97 4.21zm15.71-.2h-2.55v-13.8h5.46c3.2 0 5.26 1.82 5.26 4.64 0 2.92-2.17 4.77-5.54 4.77h-2.64v4.39h.01zm0-6.7h2.71c1.72 0 2.87-.95 2.87-2.36 0-1.54-1.05-2.4-2.87-2.4h-2.71v4.76zm22.63 6.93c-4.1 0-7.19-3.05-7.19-7.1 0-4.04 3.18-7.17 7.23-7.17 4.1 0 7.19 3.05 7.19 7.09 0 4.05-3.18 7.18-7.23 7.18zm0-11.91c-2.58 0-4.53 2.04-4.53 4.74 0 2.76 1.96 4.82 4.57 4.82 2.58 0 4.53-2.04 4.53-4.74-.01-2.77-1.97-4.82-4.57-4.82zm27.33 11.68h-2.97l-3.42-4.79-2.87.03v4.76h-2.55v-13.8h6.16c1.69 0 3.07.48 3.99 1.39.75.77 1.15 1.81 1.15 3 0 2.11-1.14 3.59-3.21 4.22l3.72 5.19zm-9.26-7.03h3.44c1.66 0 2.73-.87 2.73-2.21 0-1.43-1-2.23-2.75-2.23h-3.42v4.44zm22.84 7.03h-2.57V232.3h-4.33v-2.37h11.23v2.37h-4.33v11.43zM98.33 212.16c-.66 0-1.2-.4-1.2-.89s.54-.89 1.2-.89h237.52c.66 0 1.2.4 1.2.89s-.54.89-1.2.89H98.33zm-96.84 0c-.51 0-.92-.4-.92-.89s.41-.89.92-.89h31.17c.51 0 .92.4.92.89s-.41.89-.92.89H1.49z" fill="#1081A5"/>
    <path d="M121.98 134.26s-4.8 4.84-8.68 12c39.2-9.18 87.53-12.47 139.95 1.88 7.49-19.47 23.79-23.04 24.35-23.17.04.23 4.1 5.33 7.94 6.59 4.11 1.35 13.73 1.77 14.94 2.67 0 0 1.8 4.27 3.5 5.2 1.7.93 6.36.66 6.36.66l-3.24-3.44s1.23-.64 3-.1c1.49.46 3.18 2.31 4.37 1.72 1.51-.75.76-5.33.76-5.33s-17.54-21.77-26.46-29.36c-.01-.01-11.17-9.58-11.17-9.58-2.7 3.29 1.44 7.25 1.44 7.25s-25.11.23-25.09.28c1.17 3.3 4.27 4.65 4.27 4.65 0 .1-19.34 1.02-19.34 1.02 1.73 3.2 5.1 4.77 5.1 4.77.1 0-19.1.97-19.1.97 1.92 2.67 5.85 4.97 5.85 4.97 0 .42-18.2.48-18.2.48 1.75 2.17 6.71 4.39 6.71 4.39-17.7 3.86-39.63 1.48-51.99-.06-25.23-3.14-37.55 5.8-40.44 7.08-.3.13-3-1.53-11.04-1.72-28.21-.68-47.02 17.89-47.02 17.89s-7.46-1.26-9.39-.98c-4.39.64-17.66 8.59-19.25 8.97-4.61 1.11-9.25-7.74-9.25-7.74-.25-.04 11.88.93 25.88-6.23.03-.02 3.14.03 5-.24 1.27-.19 4.5-3.93 4.5-3.93l-5.95-1.62c-3.04.61-13.45 3.48-19.88 3.29-5.95-.18-16.61-2.35-19.17-8.17l.63-.87s2.66.26 3.3.01c.99-.39 2.08-7.47 2.24-7.47 2.61.29 5.31-1 5.31-1l-5.21-1.51s-.72-6.63-7.52-7.04c-6.81-.41-10.39 4.67-9.32 12.95.17 1.33 2.58 1.53 2.58 1.53l.49 2.49s-5.32 10.26-1.84 20.97c3.92 12.06 11.42 21.38 13.59 22.93 2.16 1.55 3.55 1.34 3.55 1.34l-6.95 3.36s1.57 3.1 4.06 3.85c11.76-6.93 32.78-17.98 60.46-27.07 4.71-6.58 18.27-21.99 35.37-19.53z" fill="#FFD600"/>
    <path d="M251.46 153.41c0-.01 0-.01.01-.02-12.24-3.69-90.15-24.48-180.21 13.7 7.57 3.16 12.89 10.63 12.89 19.34 0 11.58-9.39 20.96-20.96 20.96-11.58 0-20.96-9.38-20.96-20.96 0-2 .3-3.85.81-5.55-2.39 1.33-4.77 2.68-7.17 4.1-.03.49-.08.97-.08 1.47-.09 15.16 12.29 27.46 27.45 27.46 15.17 0 27.24-12.29 27.45-27.46.1-6.73-1.44-11.66-5.39-16.68 0 0 9.42-6.26 26.81-4.77 17.5 1.5 25.86-3.9 25.86-3.9s12.54 5.58 14 13c1.12 5.68-5.6 9.71-8.74 12.47-2.57 2.09-2.07 3.06-2.07 3.06s26.94-.12 32.81 3.13c5.58 3.09 4.64 7.05 4.64 7.05l15 2.99c-7.51-15.65-34.43-19.64-34.43-19.64 15.67-12.18 14.79-21.92 14.79-21.92 38.18-2.81 60.31 23.95 60.31 23.95-23.18 1.49-25.21-8.46-25.21-8.46l-15.92.08c25.58 18.02 49.46 15.98 49.46 15.98-1.01-9.24-9.22-31.35-9.22-31.35 50.75.26 72.72 30.76 72.72 30.76l17 3.09c-25.72-27.95-68.13-40.9-71.65-41.88z" fill="#1081A5"/>
</svg>
